/* XPM */
static char *f898bf8f848541c791d0536670073667Iq255g0DTa5no1mK[] = {
/* columns rows colors chars-per-pixel */
"64 64 217 2 ",
"   c #B4D4F9",
".  c #040303",
"X  c #0D0B0A",
"o  c #080606",
"O  c #120C0D",
"+  c #1A0106",
"@  c #151211",
"#  c #1A1615",
"$  c #1D1C1C",
"%  c #1C1817",
"&  c #2A060B",
"*  c #211B1C",
"=  c #370A13",
"-  c #22201F",
";  c #271D20",
":  c #242323",
">  c #292625",
",  c #2C2C2C",
"<  c #362B2C",
"1  c #32312F",
"2  c #333332",
"3  c #383535",
"4  c #3A3A3A",
"5  c #510108",
"6  c #6B000B",
"7  c #670717",
"8  c #740C1B",
"9  c #513C3C",
"0  c #6A242E",
"q  c #2F6A29",
"w  c #564F30",
"e  c #45663B",
"r  c #3E3D40",
"t  c #434242",
"y  c #484645",
"u  c #4B4A4A",
"i  c #484748",
"p  c #534D4C",
"a  c #52504E",
"s  c #545454",
"d  c #5B5B5B",
"f  c #595858",
"g  c #4E4755",
"h  c #625C5C",
"j  c #6A484C",
"k  c #4D6D48",
"l  c #717545",
"z  c #5F6060",
"x  c #646363",
"c  c #6C6A6A",
"v  c #6A6866",
"b  c #716F6E",
"n  c #76746D",
"m  c #726E70",
"M  c #757474",
"N  c #797574",
"B  c #7C7B7B",
"V  c #717E70",
"C  c #8C0215",
"Z  c #AD041D",
"A  c #9A1328",
"S  c #BF112C",
"D  c #C90D2A",
"F  c #C9112E",
"G  c #D1122E",
"H  c #CC1331",
"J  c #816B5B",
"K  c #837F7E",
"L  c #29A10F",
"P  c #48B81F",
"I  c #438138",
"U  c #419A34",
"Y  c #59AE2D",
"T  c #7EBF3B",
"R  c #3CD319",
"E  c #28E40C",
"W  c #3BE619",
"Q  c #38E409",
"!  c #3BE924",
"~  c #3FF327",
"^  c #52CA04",
"/  c #62D80F",
"(  c #51EB1B",
")  c #67E81A",
"_  c #60E10A",
"`  c #4BC62F",
"'  c #7BCD31",
"]  c #4AE528",
"[  c #56F322",
"{  c #58F53A",
"}  c #51ED32",
"|  c #71F92C",
" . c #65EC33",
".. c #7DEB3B",
"X. c #7DE536",
"o. c #6CF33A",
"O. c #67F537",
"+. c #72F43D",
"@. c #76E428",
"#. c #5D8259",
"$. c #4CC544",
"%. c #6DC94B",
"&. c #6CFA4B",
"*. c #67F644",
"=. c #78F747",
"-. c #65E34E",
";. c #6ECC64",
":. c #66FF61",
">. c #83DF3F",
",. c #8AE63D",
"<. c #86E83A",
"1. c #85F13C",
"2. c #83817F",
"3. c #8FD44C",
"4. c #A3DA5A",
"5. c #8CE544",
"6. c #8CED45",
"7. c #86E946",
"8. c #93EB4B",
"9. c #94EA48",
"0. c #84F345",
"q. c #88F649",
"w. c #92F24B",
"e. c #93F245",
"r. c #99EA58",
"t. c #89F754",
"y. c #9AF656",
"u. c #8FEE5B",
"i. c #A6F25B",
"p. c #B2F05E",
"a. c #8AF965",
"s. c #9AF969",
"d. c #ABF264",
"f. c #A8FA64",
"g. c #B5F16E",
"h. c #A4F875",
"j. c #BAF571",
"k. c #A3EE69",
"l. c #C3F577",
"z. c #D0F172",
"x. c #7F7F80",
"c. c #807E80",
"v. c #848383",
"b. c #8B8B8A",
"n. c #888786",
"m. c #928E8E",
"M. c #968D85",
"N. c #918D94",
"B. c #969594",
"V. c #989696",
"C. c #9C9B9B",
"Z. c #969A96",
"A. c #91918F",
"S. c #A09E9D",
"D. c #9FA19F",
"F. c #A8A49D",
"G. c #A9A883",
"H. c #9D9FA3",
"J. c #99A1A2",
"K. c #A4A3A3",
"L. c #A8A6A6",
"P. c #ACACAC",
"I. c #A9A7AF",
"U. c #B5B4B4",
"Y. c #BBBABA",
"T. c #B9B6B9",
"R. c #B1B1B4",
"E. c #C1BFBE",
"W. c #A6F88B",
"Q. c #A8F999",
"!. c #B7F896",
"~. c #B3F483",
"^. c #BDFAAB",
"/. c #BDFBB2",
"(. c #BEEEB4",
"). c #C0CF97",
"_. c #D6F887",
"`. c #C8F79C",
"'. c #DCF29C",
"]. c #D7F899",
"[. c #C8F380",
"{. c #C2FDA5",
"}. c #C9FAAA",
"|. c #D7F8A9",
" X c #CAF8B8",
".X c #D7F7B6",
"XX c #D6EAA9",
"oX c #E9F8A5",
"OX c #E4FBB9",
"+X c #F6F6B2",
"@X c #E5E8A7",
"#X c #BEBFC0",
"$X c #C4BEC7",
"%X c #BEC4C0",
"&X c #C3C3C3",
"*X c #CCCBCB",
"=X c #C8C6C6",
"-X c #D5D5D5",
";X c #DBDBDB",
":X c #D7D8D7",
">X c #CFCFD2",
",X c #E0DEDE",
"<X c #DCE1DE",
"1X c #E8FCC8",
"2X c #E0E0DE",
"3X c #EEFED9",
"4X c #F0FCD7",
"5X c #DFDFE0",
"6X c #DFE2E1",
"7X c #E4E4E4",
"8X c #E9E5EA",
"9X c #EBEBEB",
"0X c #E8E8E7",
"qX c #F4F4F4",
"wX c #FCFCFC",
"eX c #F7F8F8",
"rX c #F0F3EF",
/* pixels */
"                                  W } } !                                                                                       ",
"                            ] { *.a.t.q.&.*.{                                                                                   ",
"                        E { =.=.6.w.w.d.j.y.q.=.]                                                                               ",
"                      E &.q.@.      6.w.i.[._.f.=.]                                                                             ",
"                      { t.X.          ,.) 6.j.oXi.=.]                                                                           ",
"                      O.<.                  8.i.'.y.+.W                                                                         ",
"                      ] +.    e.9.9.6.8.  @.w...  +Xl.0.}                                                                       ",
"                        ] O.7.r.5.r.<.=.t.h.!.~.=.+.<.i.t.W                                                                     ",
"                          } &.q.  ..{ :.^.Q.4X1X}.!.a.7.e.w.Q                                                                   ",
"                            &...    &./. X{.1X.XOX1X/.W.f.+X7.(                                                                 ",
"                              &...  q.}.}.p.oX1X1X4X`.Q.!.g.oX5.]                                                               ",
"                                [   <.Q.1Xl.1X].z.1X|.'. X7.+Xd.w.]           v K.b.b.b.b.b.n.v.v.x.B B B M M x.N.s 3           ",
"                                  [ <.h.3X]..X|.z._. XOXQ.o.  '.d.=.]     1 P.eX9X0X0X8X7X0X0X0X0X0X0X7X7X9XwXwXC.z =Xh         ",
"                                    O.6.!. X].1X].z.^./.o.6.9.8.  j.0.R #.8XqX:X:X;X;X;X;X;X;X;X;X:X:X;X9XwX;Xf c :X7X;Xf       ",
"                                      [ ,.k.h.!.}.{.}.u.      8.  @Xg.0.O.(.7X;X;X;X;X;X;X;X;X;X;X;X7XwXwXC.y P.9X;X:X7X-Xi     ",
"                                        [     0.t.O.6.<.      3.<.,.i.i.+.` Z.7X;X;X5X;X;X;X;X;X;X9XwX7Xx x :X8X:X;X;X;X7X&X2   ",
"                                          O.7.4.6.  8.e.8.y.  l XX|.s.1.h.q m c ;X;X;X;X;X;X;X6XwXwXL.u H.rX;X;X;X;X;X;X:X0XT.: ",
"                                            o.y.w.      T ' 3.OX`.>./ q.-.k wXv.M 0X;X;X:X;X0XwX9Xv z -X8X:X;X;X;X;X;X;X5X8Xm.: ",
"                                              &.8.      J ).y.X.^ ^ | u.q #XrXV.z 9X:X;X7XeXwXR.u B.9X5X:X;X;X;X;X;X:X8X:Xc     ",
"                                                =.' w G.}.<.) w.q.0.%.e R.eX*X4 #X5X;X0XwXqXm f *X9X:X;X;X;X5X;X;X;X9XY.y       ",
"                                                L  .u.f._ / | s.$.#.n *XeX$X4 K.0X;XeXwXY.u b.9X6X:X;X;X;X;X5X:X;X7XV.:         ",
"                                              * B.;.Y Y P P U k #.>XwX2Xb.r R.0X7XwXeXB s =XrX:X:X5X5X;X;X5X:X7X:XM             ",
"                                            p *XwXN.g #XH.I.$X8XqX:XB.a m -X0XqXwX&Xu n.0X7X;X;X;X;X;X;X;X;X9XY.p               ",
"                                        # m.qXqX-X5Xm v.#X#XP.A.n z B %XrX9XwXwXx.a &X9X;X;X;X;X;X;X5X:X5X7XB.:                 ",
"                                      a -XwX;X-X:X;X7XK.n.v.n.C.T.;X0X7XqXwX*Xs B 7X7X;X;X;X;X;X;X;X;X7X:Xm                     ",
"                                  @ B.eX6X:X7X9X0X7X6X7X0X0X0X0X2X;X7XwXwXb.u T.9X;X;X;X;X;X;X;X;X;X0XU.u                       ",
"                                u >X9Xp @ , u b Z.T.-X6X0X;X;X:X6XqXwX:Xf M 7X7X;X;X;X;X;X;X5X;X,X7XB.                          ",
"                            * m.wXT.; + 7 C 6 5 & & < 9 v :X;X7XwXwXZ.u P.9X;X;X;X;X,X;X;X;X;X7X>Xv                             ",
"                          h *XqXb + = A G H H H S S 6 + n.2XrXwX7Xd c ;X0X:X;X;X;X;X;X;X;X;X9XP.r                               ",
"                        M.qXeXL.> * 7 Z Z D F H D C 9 %XeXwXwXP.i H.rX;X:X;X;X;X;X;X;X;X7X,Xn.                                  ",
"                      s eX<X-X;X,X=XS.N j 0 8 C 5 v 6XqXwXrXc d -X0X:X;X6X;X;X;X;X;X:X9X=Xd                                     ",
"                    wXM.c qX6X;X-X,X7X0X7X>XR.v.J.qXwXwXE.u m.9X;X:X;X;X;X;X;X;X;X;X8XS.1                                       ",
"                    F.n x.P.P.>X7X;X:X;X;X,X7X9XwXwXwXv.a %X9X:X;X;X;X;X;X;X;X;X7X;XN                                           ",
"                    c d 1 2 2 : M ;X;X;X;X;X7XqXwX;Xs N 7X7X:X;X;X;X;X;X;X;X;X9XY.u                                             ",
"                    % 2 s f f 4 . s ,X;X;X9XwXwX;Xt P.9X:X;X;X;X;X;X;X;X;X2X7XA.-                                               ",
"                    : s s s s f , X C.7X7XwXwXwXd C.qX:X;X;X;X;X;X5X;X;X0X*Xx                                                   ",
"                    1 f s a s d : - z 0X7XwXwX7Xu 6X;X;X;X;X;X;X;X;X;X9XL.3                                                     ",
"                    % a d f s 2 , $ B 0X7XwXwX,Xf 7X;X;X;X;X;X;X:X7X;XN X                                                       ",
"                      $ 1 , : % $ u :X;X;XeXeXwXd %X0X:X;X;X:X;XrXY.y                                                           ",
"                      w c , , u b.5X6X:X7XeXeXwX&Xf *X9X0X7X0X2Xn.%                                                             ",
"                      h qX;X-X,X9X:X;XqXwXwXeXwXwX*Xx m L.U.C.p                                                                 ",
"                      B 9X:X;X:X-X5XqXwXwXwXwX:XV.K.s                                                                           ",
"                      K ;X7X0X0XqXwXwXwXqX-XM K -XU.:                                                                           ",
"                    > 2.N N v.n.C.K.C.b.#.B T.wX7X1                                                                             ",
"                    B eX;X*XU.T.&X=X;X7XwXwXwXrXu                                                                               ",
"                  3 ;X;X;X,X0XwXwXwXwXwXwXeXwXc                                                                                 ",
"                X Z.9X:X;X:X0XwXeXwXeXwXeXwXb.                                                                                  ",
"                p 0X;X;X;X,XeXwXwXeXwXeXwXP.X                                                                                   ",
"              # T.7X;X;X;X9XwXwXwXwXeXwX-X$                                                                                     ",
"              v 9X:X;X;X;XeXwXeXwXeXwX9X4                                                                                       ",
"            : >X7X;X;X;X9XwXwXeXwXeXwXd                                                                                         ",
"          . v.rX:X;X;X;XeXeXwXwXeXwXB                                                                                           ",
"          4 ,X;X;X;X:X0XwXeXwXeXwXK.o                                                                                           ",
"        X K.9X;X,X;X,XeXwXwXeXwX*X:                                                                                             ",
"        a 9X:X;X;X:X0XwXwXeXwX0X3                                                                                               ",
"      # Y.7X;X;X;X;XeXwXeXeXwXf                                                                                                 ",
"    X N wX7X7X,X;X9XwXeXeXwXK                                                                                                   ",
"    o B V.P.Y.*X:XeXwXwXwXS.X                                                                                                   ",
"  c I.T.C.N.c.M N c.c.c.b O                                                                                                     ",
": -XeXrX9X7X7X7XrXrXrXqXB                                                                                                       ",
"  m wXwXeX9X0XqXwXwXwX9Xi                                                                                                       ",
"    V.eXwXwXwXwXwXwXwXV.                                                                                                        ",
"      2.*XqXwXwXwX7XZ.:                                                                                                         ",
"          c n.b.N i                                                                                                             "
};
