/* XPM */
static char *ede0858d20564702bc38eda17c4184a2UxgGUVpNMgS3thBL[] = {
/* columns rows colors chars-per-pixel */
"64 64 202 2 ",
"   c #B4D4F9",
".  c #0E843E",
"X  c #399B3F",
"o  c #4DA53C",
"O  c #46A239",
"+  c #51A73E",
"@  c #54A93E",
"#  c #5EAD3E",
"$  c #66B03E",
"%  c #77B63E",
"&  c #0D8443",
"*  c #138643",
"=  c #168843",
"-  c #1C8B44",
";  c #228E45",
":  c #269045",
">  c #2B9246",
",  c #2D9348",
"<  c #339646",
"1  c #369846",
"2  c #3B9B47",
"3  c #3D9A48",
"4  c #339748",
"5  c #429E47",
"6  c #439D49",
"7  c #489F49",
"8  c #409D55",
"9  c #43A046",
"0  c #4FA740",
"q  c #46A148",
"w  c #4CA348",
"e  c #51A742",
"r  c #54A943",
"t  c #5AAC45",
"y  c #53A54A",
"u  c #58A64B",
"i  c #55A949",
"p  c #5CAC4A",
"a  c #5DAE52",
"s  c #62AE45",
"d  c #62AE4B",
"f  c #6AAF4D",
"g  c #65B043",
"h  c #6BB245",
"j  c #64B04B",
"k  c #6CB24C",
"l  c #73B545",
"z  c #7CB946",
"x  c #73B54D",
"c  c #7BB74F",
"v  c #7CB94D",
"b  c #78B745",
"n  c #61AF52",
"m  c #65B153",
"M  c #6BB55C",
"N  c #6EB552",
"B  c #72B652",
"V  c #7DBA51",
"C  c #75B85D",
"Z  c #7ABB5E",
"A  c #6DB764",
"S  c #71B761",
"D  c #75B965",
"F  c #7CBC63",
"G  c #74BA6A",
"H  c #7CBD6E",
"J  c #78BC70",
"K  c #9DC43D",
"L  c #84BC47",
"P  c #83BC4E",
"I  c #8ABF4D",
"U  c #8BBE45",
"Y  c #85BC50",
"T  c #8BBE51",
"R  c #82BD5B",
"E  c #82BE63",
"W  c #81BF73",
"Q  c #8DC04E",
"!  c #9DC544",
"~  c #92C24D",
"^  c #9CC54B",
"/  c #97C346",
"(  c #8DC151",
")  c #8CC15B",
"_  c #93C251",
"`  c #9CC652",
"'  c #9FC853",
"]  c #9DC759",
"[  c #97C55A",
"{  c #A0C747",
"}  c #A1C749",
"|  c #A3C94D",
" . c #ABCC4E",
".. c #A0C753",
"X. c #A5CA53",
"o. c #ABCC54",
"O. c #A7CB5A",
"+. c #ABCD5B",
"@. c #B1CF55",
"#. c #B0CF5A",
"$. c #B4D155",
"%. c #B9D356",
"&. c #B3D05A",
"*. c #83C06B",
"=. c #89C164",
"-. c #99C768",
";. c #83C075",
":. c #83C17B",
">. c #8BC47C",
",. c #8EC572",
"<. c #91C77B",
"1. c #99C97B",
"2. c #9ACA79",
"3. c #A0CA65",
"4. c #ADCF62",
"5. c #AACE6B",
"6. c #B0CF61",
"7. c #AFD066",
"8. c #AED069",
"9. c #B2D166",
"0. c #B4D26C",
"q. c #BAD569",
"w. c #A4CD78",
"e. c #ACD17B",
"r. c #B6D473",
"t. c #B5D47C",
"y. c #BBD77B",
"u. c #BBD677",
"i. c #C8DD7F",
"p. c #8EC682",
"a. c #89C584",
"s. c #96CA8A",
"d. c #9CCD8D",
"f. c #94C985",
"g. c #9DCD91",
"h. c #A1CD80",
"j. c #A7D084",
"k. c #BAD782",
"l. c #BED883",
"z. c #BCD98B",
"x. c #A1CF93",
"c. c #ABD396",
"v. c #AAD49B",
"b. c #A5D297",
"n. c #BDDB9C",
"m. c #BFDB95",
"M. c #ACD5A3",
"N. c #B0D7A4",
"B. c #B3D8A7",
"V. c #B9DBAD",
"C. c #B7DAAA",
"Z. c #BDDDB1",
"A. c #B6DAB7",
"S. c #C3DB85",
"D. c #C3DB8C",
"F. c #C6DD92",
"G. c #C9DF92",
"H. c #C7DF9C",
"J. c #CEE08B",
"K. c #CCE097",
"L. c #CDE19C",
"P. c #D1E39C",
"I. c #C2DDA1",
"U. c #C1DFB1",
"Y. c #C1DFBD",
"T. c #CFE3A3",
"R. c #C6E0AE",
"E. c #D3E5A4",
"W. c #D3E5AB",
"Q. c #D9E8AB",
"!. c #C4E1BD",
"~. c #CAE3B8",
"^. c #D6E7B1",
"/. c #DAE9B5",
"(. c #D0E7BC",
"). c #DAE9BB",
"_. c #E3EDBC",
"`. c #CBE5C4",
"'. c #C7E2C0",
"]. c #D0E7C5",
"[. c #DDEBC2",
"{. c #D4E9CE",
"}. c #D5E8C1",
"|. c #DDEDD4",
" X c #E2EDC3",
".X c #E3EFCB",
"XX c #E7F0CC",
"oX c #E9F1CE",
"OX c #E0EFD9",
"+X c #E6F0D0",
"@X c #EBF2D4",
"#X c #E2F0DC",
"$X c #EDF4DB",
"%X c #EDF5E4",
"&X c #EEF6EA",
"*X c #F1F7E5",
"=X c #F5F9EE",
"-X c #F0F7EF",
";X c #FCFDF3",
":X c white",
">X c #FCFEFD",
",X c #FEFEFE",
/* pixels */
"                                                    +.    #.+.O.o.X.O.+.O.7.                                                    ",
"                                                &.+.o./.=XD.| X.| } L.=XD.} o.O.                                                ",
"                                      ! o.&.+.o.Q L Q 5.D.0.! 0.F.X.9.E.y.| o.o.                                                ",
"                                  o.+.T.8.z v j G !.s.O b o.| S.>X^.! D.r.| ^ ..o.]                                             ",
"                                o.^ /.>XC r i @ ~.:XI.l B x B Q K.>X9.J.y.+.F.7.| ( Z v.m p m                                   ",
"                              X.o.| r.=.r p N X.&.D.y.^ ( V p r R.&Xw.% } q.>X*Xo.| 5.=Xw.t i k o.| {                           ",
"                            | o.~ -.oXs.e k ' ( b (.A.e p p j p p m i u N L -.S.o.X.| 9.#.` v p z F.W.O.o.                      ",
"                          [..XR + :.:XV.+ N j r i x Q _ ..o.` p i i p t e 0 r ^.t.| o.` ..O.$.( e {.:XW.^                       ",
"                    o.{ F.:X#Xa t p H p t p i x T I x s f X.@.T Q k e v.{.>.r W M k T t + x ( o.~ 5.).z.|                       ",
"                  +.r.o.+.1.m t e d.`.M r p p k p d f r 1 1 y c _ @.Q !.:XM.@ r t p o b.V.i j ` $.| 0.D.X.o.r.X.                ",
"                  e.%X) h e p p e <.:X>.r j t i Y X.o.@.d 3 f : - 9 x o.i.B i u p s i W |.S s z I | G.@XX.D.;Xt.}               ",
"            O.o._ a S i p p p p p + D M i q q _ o.X...o.o.X.%.T : = & : g .._ c w y s t r p r :.G s L | | z.:XK.}               ",
"            o.' d i r i p k k p p p r j f 1 v $.o.o.o.X.o.@.X.T Q v k p u X.o.@.w = , q d d + f.`.d i k o.Q :.[ o.O.            ",
"          o.` @ i p k z Q x j p p u k o.o.@.@.T u 6 Y $.X.f 6 ; : d T ` $.#.X.X.X.B ; - , w j o + p p i x _ + Q o.X.            ",
"          | =.M.) Q ! S.R.+ i p u 9 _ o.o.P 3 ; - * - 6 : * * = - * * = < k X.@.@._ ; = - ; 2 d.v.p p d i p p P o.O.            ",
"          r !.:X0.E.,.J p.r B w q ' $.o.f - * = * > c k c T x 6 , > > 2 6 * : d T X.X.c ; , j &X>Xd.+ r p p p p ~ | o.+.        ",
"      m p g T.T.y.:X!.@ g Q o.x ..` x 3 - * 1 f 7 Y %.%.@.o.@.o.X.` ..o.@.T ; * , < 6 Y X.< 5 (.:Xs.>.Z.r p p p g /.y.|         ",
"      j i x  .^ B '.:Xt.| o.X.$.` ; = - * u o.o.%.@.P 6 T X.X.X.X.o.X.X.X.@.` 1 2 q - & f ..; 3 ;.e B.OXr p p r O M.1.^         ",
"      ..x _ ` _ o n.$X#.o.X...~ 7 = : * u ` T @.f 3 - - X.@.o.o.o.X.@.@.@.I 7 u = w s , * P I * X t M M r p p M.].F s           ",
"    X.o.@.h C 7.Q o.o.~ u 2 < ; = - - 3 ` , 1 d = = ; Y Y y < : T @.T f d o.1 * - 6 s u - - T 6 - i t i p t m &X:XV.            ",
"    +.7.B O U.oX| o.Q w * - ; - : c y c , = ; = ; ; ; 3 = * 3 d ` T * * * , ; - - i p p < * 6 u = w p p p d + N.:Xb.# B         ",
"    W.OXt @ n.P.} x p , ; ; * : X.f 6 3 = ; ; ; ; - - - - f %.@.%.T u d 1 p 6 - ; w j p 2 * 7 u 1 j p p p p t m &XU.(.F         ",
"  ! K.+Xl i Q ^ j p p ; - ; 6 T T * ; - ; - ; ; ; ; ; - < ..T I f Y @.@.o.$...> - : 4 p 1 ; 1 7 : t p t i p p r ;.x.~.<.        ",
"  X.( [ _ i _ Q y s 3 - * u %.X.> - ; - ; 3 ; = - - - - ; : - ; & 6 @.X.X...$.p * - - q > 1 ; ; = w j p p p p p r + r           ",
"  ( i p ' j ' B t p > 1 ; c %.u = ; ; 3 p u - , w i w w 6 - ; ; ; ; 7 ` o.X.o..., ; ; ; ; 6 ; - > : i p p p p p p j p p B @.    ",
"  ( t k X.V ` p p p j i ; ` T = ; 1 u d p i q j t 5 1 < : - = - ; = * > T @.X.@.f - - 6 < 6 ; * w j , j p p p p p p p i x @.    ",
"  o.N Q X.X.Q i p t p > : o.d = ; i s i 1 p p < - - & 6 P , y ` ` c : * 3 X.X.o.T ; = d y w ; - > Y 2 p i p p p p p p i k o.    ",
"  ` k o.X.X.k t p j 9 = 6 $.w = ; i w ; - 2 - : > > k X.@.X.T u 7 f > ; = d @.X.X., * d y y 1 - - x 9 i 9 t p p p p p p i ( @.  ",
"  ( k @.X._ p p p q ; = i o.: - w s w - : * 1 .._ _ $.o.X.X.6 y u ; = ; ; ; ..o.o.I - 6 6 i w - = w 3 i 9 i d p p p p t i k X.  ",
"  Q j X.o.v i p i : ; = v x * q d p 1 - - , ' o.o.o...X.X.o.T o.%.6 = ; ; = d  ...%.d - < p i : : > > q i 9 p p d + V.C.+ k X.+.",
"q.P i j ` v i p w - ; - Y , 1 j p 2 - ; - c o.X.X.o.o.o.o.y * 1 ..7 - ; ; & y o.o.T k - : p i : 3 - - , p 5 p p p + !.#X0 k X.#.",
"@.v r i Q P i j 2 - - : 6 - p p p i ; - - x $.X.o.u 7 T @.d - P @.%.d = : Y ..X.@.u * ; - p w : w : 3 - i 9 i p p r A ;.r p ` o.",
"o.h H {.+.b i i : - - : = > p 2 y p ; - - ; p o.I - & u o.@.7 3 P Y 6 - = c @...o.Y = > 2 u 2 - p - s 6 9 9 q j p p r r p p _ o.",
"o.j *.:Xl.p d i - - 9 4 - ; : : u r ; ; ; ; & v ' ; = _ o.o.7 ; * 6 ; * * d o.X.o.v * 1 j p : : p - 7 B , 3 q p p p p p p p ..o.",
"o.j Q P.w.r d 9 - : i : - : - 9 j y ; - - ; = y $.Y ; T o.o.` ..Y $.P 6 T @.X.X.$.y * q p t : : y - 1 _ ; - w p p t p p p P o.o.",
"X.j x  .v r p r - 2 i - - - > p p 9 - - ; ; > - 1 f 7 - 5 ..o.o.o...@.X.u T o.$.V - : p j p w > , - , _ > - i p p p i j ` o.o.  ",
"o.k j $.v i p j 4 w e - - - w p p > - : ; - 1 , = ; ; - * T o.X.X.@.T ; < X.X.f - - e i 7 p p : = ; ; ~ 1 ; p p p p r j X.X.X.  ",
"#._ x o.v i p p i i w - : - w j p q : - ; - > 9 - , f ; - ~ $.o...u = y X.x > * - w p : < s u ; - > - T y , s p p p p j X.o.O.  ",
"#.o.g X.( j k p p p i - - - > p t j w = - ; = w 3 * u P - 6 p u > ; f f > = ; < w q : - i p 1 = , u * ..d 5 s p p k v N o.o.    ",
"  o.j.R ^ x V i p p p , - - : i p p t 1 , ; - < u ; * 7 2 = = * = 3 3 * - ; : : , , = 2 w ; - ; c < w o.6 u p p i ` Q z X.o.    ",
"  | oXg.Y -.~ p p p p w - ; - w j i p p j 1 - ; p q ; - - : : : ; - = - ; > < 5 3 ; 3 s < = , f 6 2 @.x 2 j p i Q X.V m.o.      ",
"    | ^.XXXXe.r p p p p q - - : r , w p p i - - 3 j p u w ; - - - - < 6 7 7 2 < 1 w y 2 ; - 1 > u $.~ 1 p p e F &.^ t.:Xk.      ",
"    | 0.1.`.#Xr p p p p j 9 - - : - w p p p > - - 1 i s p i > > < w d 6 : ; : 6 9 > = - ; - & 3 %.' 1 w j i Z >XJ.! 0..Xl.      ",
"        z +X:Xd.e p p p p i - ; - - 3 j p p i : ; - - 5 p p p p s d < = = = 6 y ; - ; ; * < y _ .., > p + h 9.@X0.' X.X.        ",
"        X.[.:X^.l p p + u d 1 - - : : i p p j r ; - ; - > ; 2 q 7 > = ; x T c 7 ; ; = = d o.%.' < u h p >.+.X.o...X.X.          ",
"        X.7.F.7.X.j p d.M e 0 - = y y - q i i p t , - ; - - - * & ; < : y 6 ; & = - 6 I %.T u 3 x Y e C.:Xl.! v j ..o.          ",
"        ^.D.K X.O.h M :XD <.!.8 & y _ - - - - : 6 w 1 - ; ; : q c ` T : = = ; d P ` ' P f d f I B i h E.:X Xh A N X.o.o.        ",
"      | r.0.` o.X.j p s.a OX:XA.. 7 $.w * : - - - = ; ; ; p ( ` Y u > = = ; T %.o.u ; 7 x T x u e h ^ 9.;X`.s.>Xv./ O.o.        ",
"      O...| k B ` p p r e M.>XY.- > X...1 - ; ; , , : ; - ; > : = = , u x ` X.Y < & ; , 1 i s v Q 8.$X) *.n C.>Xk.              ",
"        o.o.v i ( Q i d p r M p t , B $.` , * = - 2 q y i w 9 , ; < u u u w p 1 < < = 2 Q [ o.o.X.9.c.r r r m *.^ o.O.          ",
"        X.o.X.t g o.k p t M D r d i N X.$.I 3 k 1 * - : , , : - - * * & & * ( @.o...Y ..@.o.X.X.X.o.l k j p r Q o...            ",
"          X.| n.M.~ ( r x A |.D r p r j Q o.o.@...p , - = * - - , 6 7 d d B ` ' X.o.@.| | ..o.o.X.X.O.^ @ p Q o.o.              ",
"          O.} @X:X=.' D _ l p m t M m r p _ o.X.o. .^ ~ Y f < 1 c ~ ' ..X.$.( t Y o.^ T.F.} ` k v o.| ,.N.^ &.O.                ",
"            | S. X( w.@X+.o.v i + d.=XM r j ( X.~ k.G.&.' ( j p u u i i i p p i v &.} XX:X2.0 p ^ o.z j._.o.                    ",
"              o.| O.| 8.+.| o.( p p H M p p r + a &X:Xx.o w p B p j L ( _ Q x p k v ~ -.f.a p ] Q.[.] X.|                       ",
"                    o.%X%X8.X.@.X.x r i p + B.c.# W g.m s Y ..` p p k x $ p k p i i i b.N.v ! J.:X*X+.o.                        ",
"                  o.X.).:Xb.# V ` $.~ l j r D -.! ~ Q ^ | | o.k i p i i :.G p x k i ( ;X:Xq.| 7.L.r.| o.                        ",
"                  O...o.u.O.x i i Q J.l.x r ;.U.y.o.@.o.u.P.=.i k x v [ +Xk.! X.k p h <.s.( X...^ | o.O.                        ",
"                      o.| o.o.( j e V.).% t G -X].h Y l ).>Xz./ o.@.@. .8.E.z.j i i a A.-.} o.o.O.+.                            ",
"                          X.X.o.o.( Y /.).O.L k m i i p 0.XXF.o.` _ [ v %X:Xa.o j g n.;X0...o.X.                                ",
"                              o.o.+.o.l.W.4.X.o.Q j t e _ @X%X) p r h z k.e.b ~ ..o.#.o.| o.o.O.                                ",
"                                          o.o.o.o.` ].#X4.} o.` ^ L.(.y.! | &.o.o.o...o.O.                                      ",
"                                                o.X.E.@X7.X.o.o. .L.$Xy.                                                        ",
"                                                            +.                                                                  "
};
