/* XPM */
static char *result[] = {
/* columns rows colors chars-per-pixel */
"61 64 201 2 ",
"   c #0D843B",
".  c #26903F",
"X  c #B4D4F9",
"o  c #4DA63C",
"O  c #4FA83E",
"+  c #51A73D",
"@  c #54A93E",
"#  c #5BAB3D",
"$  c #62AE3F",
"%  c #75B63F",
"&  c #078142",
"*  c #0D8442",
"=  c #138643",
"-  c #168843",
";  c #1C8B44",
":  c #228E45",
">  c #B4D4F9",
",  c #2C9346",
"<  c #27904F",
"1  c #339646",
"2  c #369846",
"3  c #3B9B47",
"4  c #3D9A48",
"5  c #3E9D56",
"6  c #419E47",
"7  c #439D48",
"8  c #499F49",
"9  c #44A047",
"0  c #4DA642",
"q  c #46A148",
"w  c #4CA349",
"e  c #4EA843",
"r  c #50A742",
"t  c #55A944",
"y  c #5AAC45",
"u  c #52A64A",
"i  c #59A74B",
"p  c #55AA49",
"a  c #5CAC4A",
"s  c #58AA55",
"d  c #62AE43",
"f  c #62AE4B",
"g  c #6AAF4D",
"h  c #66B045",
"j  c #6CB345",
"k  c #64B14B",
"l  c #6CB34C",
"z  c #74B544",
"x  c #7BB945",
"c  c #73B54D",
"v  c #7AB64F",
"b  c #77B84C",
"n  c #7CB94D",
"m  c #61AF50",
"M  c #65B154",
"N  c #6BB453",
"B  c #6DB55C",
"V  c #66B35B",
"C  c #7CBA51",
"Z  c #77B958",
"A  c #6DB662",
"S  c #71B761",
"D  c #74B965",
"F  c #79BB65",
"G  c #77BB6D",
"H  c #7BBC6B",
"J  c #6CB473",
"K  c #7CBD72",
"L  c #83BB45",
"P  c #8BBE46",
"I  c #83BB4E",
"U  c #89BE4D",
"Y  c #85BC50",
"T  c #8BBE50",
"R  c #82BD59",
"E  c #80BE6E",
"W  c #8EC04C",
"Q  c #9DC543",
"!  c #93C24C",
"~  c #9BC54B",
"^  c #8EC051",
"/  c #8DC15C",
"(  c #93C251",
")  c #9BC652",
"_  c #9EC85C",
"`  c #9BC758",
"'  c #A0C74A",
"]  c #A4C94C",
"[  c #AACB4D",
"{  c #A0C643",
"}  c #A5CA53",
"|  c #ABCC54",
" . c #A6CB5B",
".. c #ABCD5A",
"X. c #A0C753",
"o. c #B0CF55",
"O. c #B1CF59",
"+. c #B3D155",
"@. c #BAD356",
"#. c #B2D05A",
"$. c #8CC262",
"%. c #88C168",
"&. c #93C564",
"*. c #84C173",
"=. c #84C179",
"-. c #89C47C",
";. c #8FC576",
":. c #91C77D",
">. c #98C976",
",. c #A2CB63",
"<. c #ADCF63",
"1. c #ACCF6C",
"2. c #B0CF61",
"3. c #AFD065",
"4. c #B2D163",
"5. c #B3D26C",
"6. c #B8D362",
"7. c #A3CD76",
"8. c #A4CE7C",
"9. c #AFD177",
"0. c #B4D372",
"q. c #B9D572",
"w. c #BAD77B",
"e. c #B6D57D",
"r. c #C3D757",
"t. c #C8DC7A",
"y. c #8CC583",
"u. c #90C784",
"i. c #94C985",
"p. c #9DCC84",
"a. c #95CA8B",
"s. c #9BCC8F",
"d. c #9ECE93",
"f. c #9FD09A",
"g. c #A1CE89",
"h. c #AED38D",
"j. c #BFD987",
"k. c #B9D789",
"l. c #A0CF96",
"z. c #A4D196",
"x. c #ABD49C",
"c. c #A7D297",
"v. c #BCDB9E",
"b. c #AED6A4",
"n. c #AAD5A9",
"m. c #B4D9A6",
"M. c #B7DAAC",
"N. c #B8DAA6",
"B. c #B4DAB0",
"V. c #C1DA87",
"C. c #C2DB8C",
"Z. c #C9DD87",
"A. c #C6DD93",
"S. c #C9DF94",
"D. c #CADF99",
"F. c #CCE19B",
"G. c #D0E29D",
"H. c #C6DFA6",
"J. c #C2DFB1",
"K. c #CEE3A4",
"L. c #C9E1AB",
"P. c #D2E4A5",
"I. c #D4E5AB",
"U. c #DAE7A8",
"Y. c #C7E1B3",
"T. c #C3E1BA",
"R. c #CCE3B1",
"E. c #D4E6B4",
"W. c #DAE9B5",
"Q. c #DDEBBD",
"!. c #D5E7B7",
"~. c #E2EDBE",
"^. c #CBE5C3",
"/. c #CFE7CA",
"(. c #D4E8C2",
"). c #DEECC5",
"_. c #D5E9CC",
"`. c #D7EACB",
"'. c #DCEDD4",
"]. c #DFEFDE",
"[. c #E2EDC5",
"{. c #E3EECA",
"}. c #E8F1CB",
"|. c #E0EFD7",
" X c #E7F1D1",
".X c #EBF2D3",
"XX c #E4F1DD",
"oX c #ECF4DB",
"OX c #F0F6DF",
"+X c #E6F2E3",
"@X c #EDF5E5",
"#X c #EFF6E8",
"$X c #F1F7E3",
"%X c #F0F7EA",
"&X c #F5F9ED",
"*X c #F9FAEA",
"=X c #EFF7F3",
"-X c #F7FAF2",
";X c #F9FCF3",
":X c #FEFEFE",
">X c None",
/* pixels */
">X>X>X>X>X>X>X>X>X>X>X>X>X>X>X>X>X>X>X>X>X>X>X>X>X<.>X>X.... .} } <.....>X>X>X>X>X>X>X>X>X>X>X>X>X>X>X>X>X>X>X>X>X>X>X>X>X",
">X>X>X>X>X>X>X>X>X>X>X>X>X>X>X>X>X>X>X>X>X>X>X#.| #.oXoX<.] ] ' 5.&XW.' } ..>X>X>X>X>X>X>X>X>X>X>X>X>X>X>X>X>X>X>X>X>X>X>X",
">X>X>X>X>X>X>X>X>X>X>X>X>X>X>X>X>X>X{ } O.O.} W L ! k.V...] C.5.] F.A.} } | >X>X>X>X>X>X>X>X>X>X>X>X>X>X>X>X>X>X>X>X>X>X>X",
">X>X>X>X>X>X>X>X>X>X>X>X>X>X>X>X..| F.5.n n y =.^.G X W | | .X&X .5.j.] ] ] } _ >X>X>X>X>X>X>X>X>X>X>X>X>X>X>X>X>X>X>X>X>X",
">X>X>X>X>X>X>X>X>X>X>X>X>X>X>X..' F.:XH e p h '.:X8.l b b c  .%XP.4.F.} C.5.} W Z c.M k N >X>X>X>X>X>X>X>X>X>X>X>X>X>X>X>X",
">X>X>X>X>X>X>X>X>X>X>X>X>X>X| } [ 5.%.t y l | 4.A.5.W T l e E #XY.x Q #.OX;X4.' 1.&X>.r p C | ] ' >X>X>X>X>X>X>X>X>X>X>X>X",
">X>X>X>X>X>X>X>X>X>X>X>X>X] } ~ / }.z.e l ) ^ b '.a.r k k k y M a u k I ` V...} } 2...~ c a ( I.C.] ..>X>X>X>X>X>X>X>X>X>X",
">X>X>X>X>X>X>X>X>X>X>X>XI..X8.@ A :XT.y l k u p v W ) X.| n u p a y t e O N.V.~ | ) } | +.n V ;X:X5.} >X>X>X>X>X>X>X>X>X>X",
">X>X>X>X>X>X>X>X>X>X] ..&X:XK t a H M a i a b ^ I c a v @.T T Y t K '.z.y H S j ^ t @ b ( } ! C.Q.<.} >X>X>X>X>X>X>X>X>X>X",
">X>X>X>X>X>X>X>X>X4.4.} 7.H y t E ^.B y a a j p f f w 1 8 g Y | ~ p.:X/.p p p a O x.b.e l | o.' j.0.] 5.2.>X>X>X>X>X>X>X>X",
">X>X>X>X>X>X>X>X>X(.H.z y t a t H :Xd.+ k a p ^ } o.X.8 u 8 = 1 g ( t.$.t a k a t -.'.M k x ! | [.K.] @X!.] >X>X>X>X>X>X>X",
">X>X>X>X>X>X} | l B M p a a a a r B B r q q ) | } } | [ o.o.8 ; * ; r ~ ( n u u k t r a a y.M k W [ } oX$X] ..>X>X>X>X>X>X",
">X>X>X>X>X} ..Y p y t a k c f a f t a g 2 Y o.| | | } | o.X.T Y v g u ( | o.i = , w a f r m.m.@ a ^ ] D ;.]  .>X>X>X>X>X>X",
">X>X>X>X>X| P 0 p m l P I k a a a f } | o.| T u w ( o.! i 1 : 7 I ^ o.+.} } | v : ; 1 p y X t a y p ( h j | } >X>X>X>X>X>X",
">X>X>X>X>X! i.g.L ~ X.Q.S e a a 7 T [ o.Y 4 : - = : 7 ; = = ; = = = : i ) o.o.( > - ; > w m.-.t k a a m k } ..>X>X>X>X>X>X",
">X>X>X>X>XB -XoX5.E.M f.a j a 4 T o.o.g ; = - - 2 I g Y T i 1 , , 1 8 : ; i T X.) v : . H :X;XS O p a y u v [ ] ..>X>X>X>X",
">X>X>XM t Z ~.w.W.:XH + n | I ^ } v 7 ; - 2 f 8 T r.@.| | O.| ) X.} o.) 3 * , , 7 Y ) > s oX:XB M.-.@ a m @ k.P.' >X>X>X>X",
">X>X>Xk u W [ W *.;X{.~ | | +.| 1 = ; ; i | o.@.| g i } } } } | | } X.| } 8 2 w ; * v T . s E t @Xa.o m p X -.x.W >X>X>X>X",
">X>X..) n ) ] l l oXF.[ | X.) a ; : - u X.T | f 1 * 7 +.o.| | } } | o.X.8 i ; q f , = ( l   0 a S m a y *._.i.d >X>X>X>X>X",
">X>X} | } a $. .~ ..] c 4 1 > - ; ; 1 ( , 4 i = ; 4 T g 8 : u | X.I u } u = : 4 k u ; , ( : , a y a a o b.:X|.l >X>X>X>X>X",
">X>X<.<.k y +XA.] X.l > - ; ; : g i c 1 - : - : ; > 1 = : 8 v | 3 & = : , ; : w a a , = u 7 : i a a a t G :X`.h l >X>X>X>X",
">XQ Q.T.o k W.q.! l w ; : ; - T T 7 7 - : : : : : ; ; > T @.O.| f g 7 u w ; ; q k a 1 = i 8 q f y a a a o T.'.Y.:.>X>X>X>X",
">X{ I.!.d a ~ W p a 4 : ; 1 c ) : ; : ; ; : ; : : : - f } T I g | o.} | +.4 ; > 1 a 2 ; 4 3 2 f a a a a y M d.m.x.>X>X>X>X",
">X} ^ ` I a } j a i : - , } @.8 - : ; : 4 : - ; : ; ; > : : ; = T o.} } | l - ; ; q , 3 : : ; i a a a y y a y t k >X>X>X>X",
">Xn u c W l } a a w , , w @.v - ; : 2 a p ; 1 e u w u 1 ; : : : 1 I o.} } } 2 ; : : : 3 ; > , , a a a a a a a a a k  .>X>X",
">X^ p b ) ^ ^ p a a k 1 f | , ; 1 u f f t w k u 3 2 , > ; - : - - - v o.} o.v ; ; 7 2 7 ; - g 7 q k y a a a a a p l } >X>X",
">X} j ` } } l y a a w = n ( ; ; w k p 1 a i , ; - = a l , Y } T 7 - : T | | ) > - g w q : - w l 6 k a a a a a a a k } >X>X",
">X( b | | ) a a a y > ; ) n - ; w i : ; 3 ; , : 1 C | | T I 8 f 8 ; - 7 | } } 2 = f w p , ; , c 9 e q a a y a a a p W | >X",
">X^ b | | n p a a 1 - , } u = 4 k t ; > - 3 } ( X.o.} | C 2 f 4 = : : ; T | | T ; 7 3 a 6 ; : p 3 a 6 a d a a a a y m } >X",
">Xn l | } l a a 6 ; - 6 ` : 2 k a 3 ; ; , X.| | } } } | ) ( @.I - : : - 8 [ X.@.g ; 2 k q > > , > a 6 a a m O i.^.p a } O.",
"6.n p j } j p m 2 ; - a a ; a a 9 ; ; - n | } } | | | ( 1 = v v ; : : = 4 } | T l - , a 9 , 2 ; - e e q a a + i.;Xm d } ..",
"O.b p p ) l p a : ; ; 6 > 9 k a p , : ; v +.} } 8 i } } 1 4 | @.T : ; g X.} O.f = > > m 6 , 9 < 1 1 p 6 a a y M =.a a ( ..",
"| h y.(.) k a w ; : > - : u 9 9 f > ; : : f o.c = = I o.T , a T f : ; i o.X.o.T ; , 3 a 1 , u > l > w 3 a a a y r a a W | ",
"} $ i.:X,.t k 2 - > 9 : : > ; e a > ; ; : * T T = 1 } | T > ; 1 4 = * 7 } } | Y - 2 k p ; 1 u = v 8 3 2 a a a a m y a ) ..",
"} k W U./ t k , - q 6 ; : - 1 k i : ; : : - i r.f 1 X.| } } ( ) } 7 c o.} X.o.i = q k t ; 3 q * g k = 1 a a a a y a b | } ",
"} k C [ c p k 6 ; p 1 ; : : e k u : : : : , - 7 g 4 - g o.} | } } @.g v [ o.T : > a a a 9 , , = a v * 3 k a a a a ( | } >X",
"} k c | k y a p 1 a , ; ; 2 a a 1 - : : ; 2 , - : : = 4 | } X.| | 8 = ( o.g : - u p q f u : : = u Y = q a a a a p ) | } >X",
"<.! n | l a a a u a 1 ; ; 2 k a w , ; : ; , 7 - 7 f * 4 o.o.| Y : 1 ( I 4 = : 8 a : 3 k 8 ; : ; 4 ( : u a y a a a ) |  .>X",
"2.} h o.C k k a a k 2 ; > : u a k u ; ; : ; u , = c f ; p a 9 ; 8 v 4 - ; 1 8 8 : ; u a 1 = 8 4 7 ) 1 a a a a W l } | >X>X",
">X| p.^ W b l p a m q ; ; ; q m a y 4 , : ; 1 i : : 8 : - - - > 7 ; - : > > , 1 - 7 w : - , v - T Y 6 f f p I ( z | } >X>X",
">X...X-.( _ n p a a y , ; ; 2 k p a a k 2 ; > a 4 > ; ; > : > ; = ; ; , 1 6 6 > 3 k , ; 2 c , f +.w t k p h | I h.3.} >X>X",
">X>X} [.).}./ p a a a p , ; ; e 2 6 k a w ; ; q k p y 4 ; ; ; ; > 4 w q 4 1 1 w w 2 > ; 1 , v r.f 4 a p M 1.]  .:XF.>X>X>X",
">X>X] 0.;.#Xb.X k a a a u > ; : ; 6 a i a , ; > 4 a a f 6 > , 6 a r 1 ; > 4 8 , ; ; ; ; & f @.v , a a # ^.}.Q O.).F.>X>X>X",
">X>X>X>X$.;X#XB p a a a a 1 ; : ; 2 k y a e > ; ; : u a a a k k q ; = ; 1 u > - > ; ; 2 i | I ; q y @ W Q.K.' } ] >X>X>X>X",
">X>X>X>X3.@X:X9.y a y @ f w ; ; > > u a a a u : ; ; : : , 3 w 3 ; ; i T Y i : : - ; f o.@.Y , g y A 7.| | X.X.| >X>X>X>X>X",
">X>X>X..] w.C.| ^ w *.-.+ t : ; 3 a ; 9 p u a p , : ; : ; - = = , : 8 8 : * - : 7 ^ @.T 8 7 T l M &XoX' ( y ^ | } >X>X>X>X",
">X>X>X} Q.4.' | ` X ^.T.m (.J   4 ) > ; > ; > 6 w , ; : : 1 f ^ } u = - ; i v ( ) C g f c T l e ^ $X;X7.m V ~ | } >X>X>X>X",
">X>X>X} w.2.) | T t E D l.:X+X< , o.p = : ; : - ; : ; 1 c ) ( l 2 - - - v @.o.i > w c T g r p v ] F.:Xi.XX'.^ | ..>X>X>X>X",
">X>X>X .] ) a ! I p y o E &X+X5 - ( | 3 ; : : , , > : ; > > ; = : 8 c T | T 3 * : , 3 p k n W G.!.b H B :XR.} >X>X>X>X>X>X",
">X>X>X| | } k m ) k a a y M M y 1 a +.) 1 = - : 3 w u u w 3 > > 8 f i 8 i 7 1 1 - 3 ! ) | | ] C.=.e t a G ^ | } >X>X>X>X>X",
">X>X>X>X} | ( o W ( p a m H a a a k } +.Y 7 g , = ; > , , : ; ; = * = & c O.} } T X.+.| } } } ~ h l k p j | } } >X>X>X>X>X",
">X>X>X>X..} } T.>.] k l a T.s.@ d p a W | } +.) w > ; - - - > 3 8 i f g ( } } | | ] ' } | } } } | z e b } | ..>X>X>X>X>X>X",
">X>X>X>X>X} <.:X^.P &.Z W p M y M B t p ( | } o.[ ~ ^ n u , p ^ ( X.| | ) a C } ] K.V.' ^ k ( #.! f.9.] ..} >X>X>X>X>X>X>X",
">X>X>X>X>X>X} E.F.z {.A.[ ^ y e *.;XH t k ( ) ( C.C.| ) n i a p i u p a a e b +.] .X:X$.e l ] ] b Q.A.>X>X>X>X>X>X>X>X>X>X",
">X>X>X>X>X>X| } } } } 5.] | ) k p H B y a p O A :X:XF 0 u j l a c W ( ^ b k k n ! >.i.s h 3.{.F.~ ] } >X>X>X>X>X>X>X>X>X>X",
">X>X>X>X>X>X>X>X>X' F.;XF.] | | n y p a @ M.g.# -.a.a l ^ | b p k b h h k a a y r z.x.n ~ W.:XW.] >X>X>X>X>X>X>X>X>X>X>X>X",
">X>X>X>X>X>X>X>X..] w.:X'.k c ! +.~ z k i H &.[ W W ) ] [ ! p p p e G =.a l k a / ;X;X<.] 5.F...} ..>X>X>X>X>X>X>X>X>X>X>X",
">X>X>X>X>X>X>X>X>X} ] 5.5.^ p e n t.C.b @ -.Y.q.[ #.| C.C.k k c v I E.K.Q } c a j y.i.W | ] ' } } >X>X>X>X>X>X>X>X>X>X>X>X",
">X>X>X>X>X>X>X>X>X>X..} [ | ` l O x.).% @ K ;XM.j n / *XoX_ } o.+.[ O.F.F.j p p M B.&.] }  .....>X>X>X>X>X>X>X>X>X>X>X>X>X",
">X>X>X>X>X>X>X>X>X>X>X>X..} } | ! I I.~. .x N m p t z F.{.5.X.( ` x L.:Xn.e k h D.*X4.} | } >X>X>X>X>X>X>X>X>X>X>X>X>X>X>X",
">X>X>X>X>X>X>X>X>X>X>X>X>X>X} ..| | w.E.<.| } I a y # e.-XL.h y # % 7.k.n W } } <.| ] } | ..>X>X>X>X>X>X>X>X>X>X>X>X>X>X>X",
">X>X>X>X>X>X>X>X>X>X>X>X>X>X>X>X>X>X>X>X| } | | ,.].E.' | } ~ 0.!.F.] ] | | | } } } | >X>X>X>X>X>X>X>X>X>X>X>X>X>X>X>X>X>X",
">X>X>X>X>X>X>X>X>X>X>X>X>X>X>X>X>X>X>X>X>X>X>X} | [.W.} | } } 5.oXP.} >X>X>X>X>X>X>X>X>X>X>X>X>X>X>X>X>X>X>X>X>X>X>X>X>X>X",
">X>X>X>X>X>X>X>X>X>X>X>X>X>X>X>X>X>X>X>X>X>X>X>X>X>X>X>X..>X>X>X>X>X>X>X>X>X>X>X>X>X>X>X>X>X>X>X>X>X>X>X>X>X>X>X>X>X>X>X>X"
};
