/* XPM */
static char *_1aff815810443aab7c0a2320c17db5dhO0f9Yf45Sjw03qz[] = {
/* columns rows colors chars-per-pixel */
"40 64 216 2 ",
"   c #4CAF50",
".  c #080B06",
"X  c #37971C",
"o  c #38971C",
"O  c #37981C",
"+  c #399B1D",
"@  c #3CA41D",
"#  c #3DAB1D",
"$  c #3EB41D",
"%  c #3FBA1C",
"&  c #3C9B21",
"*  c #429D1F",
"=  c #43A31F",
"-  c #42AD1E",
";  c #43B31F",
":  c #42BB1E",
">  c #4ABC1E",
",  c #4BB31F",
"<  c #53BF1F",
"1  c #409D26",
"2  c #43A326",
"3  c #49AD20",
"4  c #45A820",
"5  c #53AD21",
"6  c #46B420",
"7  c #4EB322",
"8  c #47B921",
"9  c #4BBA21",
"0  c #54BB23",
"q  c #57B624",
"w  c #51A636",
"e  c #55A93A",
"r  c #5FBD38",
"t  c #4DA733",
"y  c #64BB23",
"u  c #42C31D",
"i  c #44CC1D",
"p  c #49C61F",
"a  c #45D31D",
"s  c #4DD41F",
"d  c #46DA1D",
"f  c #4BDE1E",
"g  c #52DE1F",
"h  c #4AE51D",
"j  c #47E01C",
"k  c #52E61F",
"l  c #52E81F",
"z  c #46C421",
"x  c #4CC521",
"c  c #4ECB21",
"v  c #47CE20",
"b  c #52C323",
"n  c #5CC323",
"m  c #51CC21",
"M  c #52CB28",
"N  c #53D422",
"B  c #5CD222",
"V  c #55DB22",
"C  c #59DD23",
"Z  c #57C839",
"A  c #60C425",
"S  c #63CC25",
"D  c #6AC224",
"F  c #72C726",
"G  c #76CD26",
"H  c #6AD427",
"J  c #67D626",
"K  c #73DC29",
"L  c #73D627",
"P  c #4EE622",
"I  c #52E621",
"U  c #5BE323",
"Y  c #55E821",
"T  c #5DEB23",
"R  c #54E52C",
"E  c #5BE62B",
"W  c #58E530",
"Q  c #62EE24",
"!  c #6BED25",
"~  c #66ED2E",
"^  c #6CEF2B",
"/  c #67E525",
"(  c #73EE26",
")  c #74E129",
"_  c #7BE52B",
"`  c #74EE28",
"'  c #7BEB29",
"]  c #7CE327",
"[  c #6EF026",
"{  c #62F024",
"}  c #74F127",
"|  c #7BF026",
" . c #75F028",
".. c #7CF12A",
"X. c #6BED33",
"o. c #6BE93C",
"O. c #75EE3C",
"+. c #72F039",
"@. c #5DAE41",
"#. c #6FBF55",
"$. c #78BD5F",
"%. c #75B965",
"&. c #74EF42",
"*. c #77EB4B",
"=. c #7EF042",
"-. c #6BE745",
";. c #7FC468",
":. c #86D729",
">. c #8BD929",
",. c #90DE2B",
"<. c #8AE42A",
"1. c #82EB2B",
"2. c #8DEC29",
"3. c #87E12C",
"4. c #93E22B",
"5. c #9DE42C",
"6. c #9DEB2C",
"7. c #93ED2B",
"8. c #83F22B",
"9. c #8DF42E",
"0. c #89F227",
"q. c #93F62E",
"w. c #9BF72D",
"e. c #96F82D",
"r. c #9CF92D",
"t. c #8EF531",
"y. c #89F33D",
"u. c #93F532",
"i. c #9CF734",
"p. c #9FF831",
"a. c #94F53C",
"s. c #9BF639",
"d. c #99E732",
"f. c #A4EC2E",
"g. c #A4F22E",
"h. c #AAF52E",
"j. c #A4FA2E",
"k. c #ACFB2E",
"l. c #B2FD2F",
"z. c #A4F733",
"x. c #A5FB32",
"c. c #ABFB31",
"v. c #A9F437",
"b. c #B4FE30",
"n. c #BCFC3B",
"m. c #C7FC3B",
"M. c #D4FD3F",
"N. c #84EE43",
"B. c #81F04D",
"V. c #95F642",
"C. c #9DF54C",
"Z. c #8AEE5F",
"A. c #88F058",
"S. c #A8F74B",
"D. c #BAFE45",
"F. c #A6F757",
"G. c #B5FA55",
"H. c #8EEF66",
"J. c #8DED6F",
"K. c #94F168",
"L. c #9AF36A",
"P. c #8FEC72",
"I. c #9EF17E",
"U. c #9CE37C",
"Y. c #ABF664",
"T. c #A6F762",
"R. c #B4F96E",
"E. c #B1F76A",
"W. c #ABF571",
"Q. c #A1F17E",
"!. c #BBF270",
"~. c #CBFB44",
"^. c #C7FD5B",
"/. c #D7FC51",
"(. c #F0FE4B",
"). c #E6FC49",
"_. c #C5FA6C",
"`. c #CAFB7F",
"'. c #DAFB71",
"]. c #A1D788",
"[. c #A8F186",
"{. c #B9F783",
"}. c #B1F485",
"|. c #B8F395",
" X c #B0E994",
".X c #BDF4A1",
"XX c #BFE6B4",
"oX c #C9FA83",
"OX c #DBFD9D",
"+X c #D2FD87",
"@X c #CEF9AE",
"#X c #C8F7A6",
"$X c #D5FBAC",
"%X c #DEFCA7",
"&X c #CBECB7",
"*X c #D9F9B4",
"=X c #DAF9BB",
"-X c #D5F8B7",
";X c #E6FDA9",
":X c #E7FCB8",
">X c #DDF8C5",
",X c #D5F3CE",
"<X c #D1E6CB",
"1X c #E7FAC3",
"2X c #EBFCCC",
"3X c #E6FAC4",
"4X c #E2F7D1",
"5X c #ECFBD4",
"6X c #EFFADD",
"7X c #F0FAD6",
"8X c #E9F5E5",
"9X c #F4FAE1",
"0X c #F3F9EB",
"qX c #F8FAF6",
"wX c #F9F9F9",
"eX c #F3F7F2",
/* pixels */
"                            N T Q Q Q Q Q U U C                                 ",
"                        > Q | 8.8.t.8. .8.....! Q U                             ",
"                      U [ 9.t.9.t.t.t.t.t.` 8.R.9. .8.7.                        ",
"                    N }.9.9.t.C.wX=X8.[ ` *.P T 9.t.q.9.,.                      ",
"                    { V.t.9.F.u.9XqX;XQ T $X{ T J.~ 9.9.9.                      ",
"                  { 9.8.8.9.t.8.Z.B.q.Q { { { ! Q P 1Xt.9.b.                    ",
"                  Q R h h Q Q q.r.b.S.F.*X8.Q { Q Q ! u.q.q.8.'                 ",
"                T P W I T k q.h P Q 2X! 9.u.8.k k Q Q $Xw.t.t.Q !               ",
"              V Y h h |.h Y t.8...Q h h h | k l Y h 8.9.~.q.t.q.[ |             ",
"            U { 4X|.T h h Y { { 0.j.2.B J : # O @ p Q 8.` :XV.l 9.oXf.          ",
"          T O.{ 0X4Xh h h [ P 8.a X X X + 7.@ o X + h h 0X^.s.T h t.q.          ",
"        V Q A.{ [.P h h ! h T d o X o X _ K 2 o O O X u E z.m.w.| T q.          ",
"        Q Q Q Q h h h ( $ B h + X X X o o q 8.+ X X X X a 8.q.9.2XN.9.r.        ",
"      V Q Q Q Y h h Y i <.h i O O q l.:.,.b.b.h.# X X X X n k.u.' m.e.9.        ",
"      Q Q Q { h h [.0 z h T h + = l.k.| m Q Q G h h + X X X h.q...j.j.9.,.      ",
"      Q L.Q h h h R U h h h % + F X X : N Q Q Q C ( h % d + n n.9.} l.9.u.      ",
"    U t.1XQ h h h l | Q h # * y - X i 8...U { { Q Q ^ f d @ + i.9.[ | j.t.      ",
"    { t.9.8.Y ! h Q l h j X o o + ] Q Q Q Q ! { Q Q Q Y u u X 1.8.' v.9.9.4.    ",
"  f.1.F.9.! T t.! 0.h h h G + * ) K @ X X + N { Q N d.Q Q <.O 7 8.h e.9.t.g.    ",
"  8.m.!.9.h Q ` h l h h # 4.* g + X X $ O <.2.8.Q c o n.9./ + + T h j.x.t.j.    ",
"  ! u.9.! P ( 8.| h h h h :.F X X X # X X D k.9.Q Q o f.! l y + ( h 9.j.9.9.    ",
"  O.'.9.h h h ! 0.h h h t.o X X X X X X X X X , r.Q @ 3 { 8.6.= u I ..e.u.9.    ",
"  ! t.t.j *.E P Q h h f K m o X 8 T @ X X X X X + 0.s + ! ! k.n + j ..! 9.9.    ",
"   .8.t.P #X9X- h h h + 4.@ o m Q V X X X X X X o + Q X ! _ f.9 # d ( / t.q.    ",
"5.} t.9.T z 5XM h h h ' H q + h ! o o X X X X O X +  .+ B c.= : u i Y 8.e.t.5.  ",
"  [ t.9...u 5X_.h h x 7 + X a Q 0 o X X X X X X X = 9.S @ 8.# i a j h 0.9.C.<.  ",
"  ! 8.u.t.h 0.k.h h 1.x # d h T X o X X X X ; N @ O t.U X ..x $ a a h 8.t.5Xk.  ",
"   .9.1XF.h h ! h u K U v h h c + X X X X X { { T $ ( P + ..N X h u $ z.C.t.q.  ",
"4...9.6X^.Y Q V h + O 8 Y h h n + + + o o o j s { d i ^ + H U X P @ @.~.t.j.9.  ",
"h.Q 9.Q x.Q U h j O X 6 h h h 1.X + 3 O s - X + # j + 9.; S V + j $ & j.a.D.9.  ",
"f.! 9.[ b.N.7 G $ X X + h h h n o F X # h X X O @ % # 8.` H ' O j h T r.9.t.:X  ",
"r.! q.b.b.8.7.n O X O + h h 9.- X f.X N / 3.O X i X O t.q.J ) X d u  .j. .9.r.  ",
"8.} b.b.l.( k.+ X X X = P h 8.+ X f.O Q 8.j./ # s ) + ~.t.T ) ; h % 9...L.t.x.  ",
"| 9.b.b.2Xi.!.X X X + # T h ! O X l.( { ..+ # $ 8._ 3 2XE.Y ) 8.P $ 9.0.9.r.e.f.",
"' } b.b.l.s.@.X X X @ 8 l h T O X { q.Q h @ i = [ a K ;X2XI Q 9.j b  .r.e.M.u.j.",
"] ! b.b.b.q.O O X X + p h h Y O + Q ! Q l : # d a +  ._.I.T h q.P / Y 8.G.(.9.i.",
"g.[ G.b.l.r.O X X X X h h h l O X { Q ; T j + X X T X.$Xh Y U ) s / U q.`.(.i.r.",
"/ { r.b.D.=Xe O X X O h h h Y O X q.l l + { { C T +.1X, h h ` 7 + h | S.k.~.Y.' ",
"b  .t.b.qX^.<XX X X O h h h Y X o w.h / T m Q { }.=Xf.$ h a 8.X O h 9.-./ 9.q.| ",
"  Q r.b.5X6XeXe X X X h h h T O o 5 k.l } Q { Q Q { 0.j # + 1.X 6 Q k.Q i.+Xq.l.",
"  [ p.b.b.V.i & X X X a + h Y N o X l.w.! ( 0.0.! T u X X 7 4 X U 9.| 8.;Xx.r.  ",
"  e.r.z.n.t.h & X X X h X i T { + X A j.j.{ ! l.* X X X + 1.X X T 9.../.oXt.q.  ",
"  0.9.b.b.9.z O w + X T X $ I Q ; X X <.b.^._.F.Q Q - X _ @ X 6 ^ t.S.2X9.q.w.  ",
"  1.8.b.c.t. XX 4XX X U + O h  .Q + X @ X.0XqX#XQ x O _ b 6 O V Q 8.3X~.9.t.f.  ",
"  w.e.k.j.9.h : X X O x C o ' 9.[ V @ X @ Q B.K.Q Q Q Q U 6 @ U { b 9.8.i.t.    ",
"    9.j.j.t.Q u X X X 4 Q + Q t.9.8.P N @ + M Q Q Q Q Q T + X Q T 8.k t.i.9.    ",
"    [ k.k.9.8.: O X O + b { Q [ 9.9.8.p T Q T T Q Q T 8 X X X T 0 m  .9.t.<.    ",
"    { E.%Xn.t.; + + X O K U { { 8.9.9.t.3 X X + o 6 H S X X ; Y O f q.9.t.      ",
"    ( y.OX9Xw.h + d O X ) #.Q Q Q 8.K + ' q.t.|.8.t.1.* X 6 N a 2 K.! t.r.      ",
"    L Q j.b.b.9.k d : X - H 6 Q Q T ' - X + 0 @ O X X # U U O @ t @X[ 8.,.      ",
"      Q Q Q r.q.#X*.e X X 8.O T Q Q g / # X X X @ U Q U - + @ + O ~ { Q .       ",
"      1.Q Q t.t.Y.u.r j + & & = Q & s + N Q T Q Q U O X + i X + ' 8.y.          ",
"        C =.>X9.9.9.9.-XC.+ X &X; T + + X O 8 C U._ O h a t 2 9.t.t.U           ",
"          Q o.t.t.t.9.$XW.I X X X # T h d O $ d u 8 P v O O O 9.t.T             ",
"            T T 8.t.9.t.9.h eXU X X ].8X@ a ;.h h a $ &XX K t.9.t.              ",
"            N P  .9.z.' Q P Q X.Z XXX X 1 $.%.@ O O X & & 7 u.9.`               ",
"              Q I  .! Q P h l 8XZ.~ V + X + + @ O X X o W.).^ t.N               ",
"              ( h T Q Q h h h { { { H.{ # @ Q T ! q.|...! ! r.L                 ",
"                k.h T I h ,Xh T { ! H.{ &.Y &.{.5X*X@Xa.a.9.l.                  ",
"                  b.! | l h h h { ~ H.{ 8XP [.F.wXwXwXwXqX{.k.                  ",
"                    5.b.r.l h h T T T h h 8.8.} >XwXwXwX4Xr.                    ",
"                        w.k.( P.l l h l 9.9.8.I.! 9.V.s.b.                      ",
"                            e.l.r.8.8.e.k.k.k.k.j.k.b.b.                        ",
"                                h.l.l.b.k.b.h.h.5.f.:.                          "
};
