/* XPM */
static char *b9cf5a5944344e4b9f4d4edb691ee594f4ZXN0wqrrOftmYQ[] = {
/* columns rows colors chars-per-pixel */
"17 64 154 2 ",
"   c None",
".  c #372A1E",
"X  c #3B2514",
"o  c #1C2637",
"O  c #38312E",
"+  c #232A35",
"@  c #252E3C",
"#  c #48301B",
"$  c #55391F",
"%  c #653F1E",
"&  c #4B3926",
"*  c #533923",
"=  c #4E3F37",
"-  c #4B3E38",
";  c #6E3536",
":  c #743839",
">  c #78393A",
",  c #66411F",
"<  c #70461D",
"1  c #76491E",
"2  c #49403E",
"3  c #55463F",
"4  c #634024",
"5  c #6E4721",
"6  c #714823",
"7  c #7D4D20",
"8  c #684C38",
"9  c #6E513E",
"0  c #625E3D",
"q  c #68663E",
"w  c #222F43",
"e  c #253247",
"r  c #24344B",
"t  c #2D394D",
"y  c #2B364B",
"u  c #273A55",
"i  c #293A55",
"p  c #273B59",
"a  c #293D5B",
"s  c #31425A",
"d  c #2C4262",
"f  c #2F476A",
"g  c #2F486C",
"h  c #30476A",
"j  c #31496D",
"k  c #4D4C4D",
"l  c gray35",
"z  c #6C5547",
"x  c #60524A",
"c  c #775844",
"v  c #785943",
"b  c #6E5C57",
"n  c #735F56",
"m  c #785F53",
"M  c #6A6C43",
"N  c #76624F",
"B  c #6B615B",
"V  c #726257",
"C  c #7C6455",
"Z  c #776858",
"A  c #646464",
"S  c #6F6F6F",
"D  c #777777",
"F  c #855222",
"G  c #85644E",
"H  c #837D4A",
"J  c #896556",
"K  c #836A5A",
"L  c #886B5B",
"P  c #8E6B54",
"I  c #8D7655",
"U  c #907B58",
"Y  c #846E60",
"T  c #867062",
"R  c #8E7363",
"E  c #947767",
"W  c #9D7E65",
"Q  c #937D6D",
"!  c #977E70",
"~  c #8C8B4F",
"^  c #8E8C51",
"/  c #928F50",
"(  c #95805B",
")  c #999151",
"_  c #9B9A5A",
"`  c #A09756",
"'  c #A39B56",
"]  c #A39958",
"[  c #A4955B",
"{  c #A6A157",
"}  c #A7A358",
"|  c #ABA259",
" . c #ACA85A",
".. c #B1AD5D",
"X. c #9F8067",
"o. c #9F816A",
"O. c #978072",
"+. c #9C8475",
"@. c #A4846D",
"#. c #A9856C",
"$. c #AA896D",
"%. c #A99465",
"&. c #AE8C72",
"*. c #A68A7A",
"=. c #A98D7E",
"-. c #A38372",
";. c #B08872",
":. c #B89077",
">. c #BF997E",
",. c #BC937B",
"<. c #BCB961",
"1. c #B5B262",
"2. c #C19A7E",
"3. c #C1967B",
"4. c #C3BF66",
"5. c #C1BD6A",
"6. c #C8C467",
"7. c #D1CC69",
"8. c #D9D36D",
"9. c #DAD570",
"0. c #E3DE74",
"q. c #E6E075",
"w. c #ECE678",
"e. c #EBE576",
"r. c #F6EF7B",
"t. c #868686",
"y. c #958880",
"u. c #9D938D",
"i. c #909090",
"p. c #BF9880",
"a. c gray64",
"s. c #AEAAA7",
"d. c #ACACAC",
"f. c #B4ABA6",
"g. c #BCB9B7",
"h. c #B2B3B3",
"j. c #CBA086",
"k. c #D6A88C",
"l. c #D3A68B",
"z. c #E4B395",
"x. c #EAB798",
"c. c #ECBA9A",
"v. c #F2BD9D",
"b. c #F6C09F",
"n. c #F7C1A0",
"m. c #F9C3A1",
"M. c #C3C3C3",
"N. c #CCCCCC",
"B. c #D3D3D3",
"V. c #DAD9D9",
"C. c #E8E8E8",
"Z. c #E4E4E4",
"A. c #F4F5F4",
"S. c #FEFEFF",
/* pixels */
"              * < % .             ",
"        # F F F F F F F X         ",
"      7 F F F F F F F F F *       ",
"    7 F F F 1 8 ,.z.x.#., F       ",
"  % F F F G n.m.m.m.m.m.m.9 =     ",
"  F F F 3.m.m.m.m.m.m.m.m.m.x     ",
"  F F P m.m.m.=.B.V.! b.b.*.g.D   ",
"* F 7 m.m.m.*.S.S.S.S.k.k.S.S.S.A ",
"5 F 4 m.m.m.s.S.A.N.S.O.+.S.S.d.M.",
"6 F c m.m.m.u.S.S.S.S.&.p.S.S.S.a.",
"  F G m.m.m.z.V.S.A.y.m.2.f.A.B.  ",
"  F c v.m.m.m.m.z.v.m.m.v.:.b.m.  ",
"  & x.m.m.m.m.m.m.m.m.m.v.m.m.x.  ",
"    C z.m.m.m.m.m.m.b.v.n.m.m.K   ",
"        m.m.m.m.m.J > > ; ;.n.    ",
"        R m.m.m.m.m.b.m.m.m.3     ",
"          N v.m.m.m.m.m.v.k       ",
"          r.e.] U I U ) 0.        ",
"        / r.r.r.r.r.r.r.r.^       ",
"        w.r.r.r.r.r.r.r.r.8.      ",
"        r.r.r.r.r.r.r.r.r.r.      ",
"      q r.r.r.r.r.r.r.r.r.0.      ",
"      ^ r.r.e.r.r.r.r.r.r.7.q     ",
"      } r.r.w.r.r.r.r.r.r.<.H     ",
"      1.r.r.0.r.r.r.r.r.r. .{     ",
"      5.r.r.q.r.r.r.r.r.r.H 0     ",
"      Z >.o.r.r.r.r.r.r.r.%.K     ",
"        m.2.r.r.r.r.r.r.r.%.R     ",
"        m.p.r.r.r.r.r.r.r.[ Q     ",
"        m.2.r.r.r.r.r.r.r.] O.    ",
"        m.$.r.r.r.r.r.r.r.] E     ",
"        m.$.r.r.r.r.r.r.r.] C     ",
"        b.&.r.r.r.r.r.r.r.| Y     ",
"        b.&.r.r.r.r.r.r.r.| T     ",
"        b.$.r.r.r.r.r.r.r.{ C     ",
"        b.@.r.r.r.r.r.r.r.' C     ",
"        v.W r.r.r.r.r.r.r...C     ",
"        b.@.6.8.8.8.6._ M Z V     ",
"        b.v.h j j j g g g -.K     ",
"        b.z d j j i r j g j.C     ",
"      B L b h j j   j j j @.      ",
"        - 2 j j h   g j j O       ",
"          @ j j f   h j j         ",
"          @ j j f   h j j         ",
"            j j d   f j j         ",
"            j j a   d j j         ",
"            j j a   d j j         ",
"            j j i   d j j         ",
"            j j u   d j h         ",
"            j j i   d j h         ",
"            j j r   d j d         ",
"            j j t   d h a         ",
"            j j t   d j i         ",
"            j j y   d g i         ",
"            h j w   a g y         ",
"            d j +   d g y         ",
"            d j @   a j r         ",
"            d g @   p j w         ",
"            d g o   e s +         ",
"              N.    l C.          ",
"            i.t.S   s.C.C.a.      ",
"            Z.C.M.  h.C.C.C.C.k   ",
"            C.C.M.                ",
"            A N.                  "
};
