/* XPM */
static char *_3acf2a51d114fd2b7cafe7b43976dddvaGvcQS5ZZuYThwm[] = {
/* columns rows colors chars-per-pixel */
"64 64 188 2 ",
"   c #00001B",
".  c #000E36",
"X  c #02153E",
"o  c #0E213F",
"O  c #0C2048",
"+  c #11244E",
"@  c #172251",
"#  c #1D2E5C",
"$  c #1F3E5F",
"%  c #30506E",
"&  c #466484",
"*  c #466392",
"=  c #4F6B9D",
"-  c #556F99",
";  c #536C95",
":  c #59749E",
">  c #5B7A98",
",  c #5F7DA5",
"<  c #607EA8",
"1  c #6483A3",
"2  c #6A86AF",
"3  c #6C87B6",
"4  c #6C88B9",
"5  c #7693BD",
"6  c #7A95B8",
"7  c #809DC8",
"8  c #86A4C9",
"9  c #89A6CE",
"0  c #8BA9D4",
"q  c #90AFDC",
"w  c #9BB7DC",
"e  c #99B5E3",
"r  c #9EBCE4",
"t  c #9EBBEB",
"y  c #A2BDE7",
"u  c #A2BEEC",
"i  c #A3BDF3",
"p  c #A6BFF8",
"a  c #9FC0DF",
"s  c #A3C3DE",
"d  c #9FC0E3",
"f  c #A3C4E5",
"g  c #A9C6E6",
"h  c #A7C8E7",
"j  c #A8CBE7",
"k  c #A5C4EB",
"l  c #A9C6ED",
"z  c #A7C8EB",
"x  c #ABCBED",
"c  c #B1CEED",
"v  c #AFD0EE",
"b  c #B1D2EE",
"n  c #A6C2F2",
"m  c #AAC6F4",
"M  c #A7C8F1",
"N  c #ADCCF3",
"B  c #A6C0F9",
"V  c #AAC5F9",
"C  c #AECAFA",
"Z  c #B1CEF4",
"A  c #B2CDFC",
"S  c #AFD0F2",
"D  c #AFD0FA",
"F  c #B0D1F2",
"G  c #B0D1F3",
"H  c #B1D2F2",
"J  c #B1D2F3",
"K  c #B1D3F3",
"L  c #B2D3F2",
"P  c #B2D3F3",
"I  c #B1D2F1",
"U  c #B3D4F2",
"Y  c #B3D4F3",
"T  c #B3D4F1",
"R  c #B0D1F4",
"E  c #B1D2F4",
"W  c #B1D2F5",
"Q  c #B1D3F4",
"!  c #B2D3F4",
"~  c #B2D3F5",
"^  c #B0D0F6",
"/  c #B1D1F6",
"(  c #B1D1F7",
")  c #B1D0F6",
"_  c #B1D3F6",
"`  c #B1D2F7",
"'  c #B2D3F6",
"]  c #B2D2F7",
"[  c #B3D4F5",
"{  c #B3D4F4",
"}  c #B3D4F7",
"|  c #B3D4F6",
" . c #B4D5F4",
".. c #B4D5F5",
"X. c #B5D6F5",
"o. c #B5D6F4",
"O. c #B4D5F6",
"+. c #B4D5F7",
"@. c #B5D5F7",
"#. c #B5D6F7",
"$. c #B5D6F6",
"%. c #B6D7F6",
"&. c #B6D7F7",
"*. c #B3D3F4",
"=. c #B9D6F6",
"-. c #B7D8F7",
";. c #B7D8F6",
":. c #B6D8F5",
">. c #B8D9F7",
",. c #BADAF6",
"<. c #B1D1F8",
"1. c #B2D2F8",
"2. c #B2D3F8",
"3. c #B3D3F9",
"4. c #B3D2F8",
"5. c #B3D3FA",
"6. c #B4D3FA",
"7. c #B3D4F9",
"8. c #B4D5F8",
"9. c #B4D4F9",
"0. c #B4D5F9",
"q. c #B4D4F8",
"w. c #B5D6F9",
"e. c #B5D6F8",
"r. c #B6D7F8",
"t. c #B6D7F9",
"y. c #B4D4FA",
"u. c #B5D5FA",
"i. c #B5D5FB",
"p. c #B4D5FB",
"a. c #B6D5FB",
"s. c #B6D7FA",
"d. c #B6D6FB",
"f. c #B5D6FB",
"g. c #B6D6FC",
"h. c #B7D7FC",
"j. c #B7D7FD",
"k. c #B6D6FD",
"l. c #B6D6FD",
"z. c #B5D4FA",
"x. c #B9D6FC",
"c. c #B7D8F8",
"v. c #B7D8F9",
"b. c #B7D8FA",
"n. c #B7D8FD",
"m. c #B7D8FA",
"M. c #B8D9F8",
"N. c #B8D9F9",
"B. c #B9DAF9",
"V. c #B9DAF8",
"C. c #BADBF9",
"Z. c #B8D9FA",
"A. c #B8D9FB",
"S. c #B9DAFB",
"D. c #BADBFA",
"F. c #BADBFB",
"G. c #BADAFA",
"H. c #BBDCFB",
"J. c #BCDDFB",
"K. c #B8D8FD",
"L. c #B9D9FD",
"P. c #B8D9FC",
"I. c #B9DAFC",
"U. c #B9DAFD",
"Y. c #BADBFC",
"T. c #BADBFD",
"R. c #B8D8FE",
"E. c #B9D9FE",
"W. c #BADAFE",
"Q. c #BADBFE",
"!. c #BBDBFE",
"~. c #BBDBFF",
"^. c #BADAFF",
"/. c #BAD9FF",
"(. c #BBDCFD",
"). c #BBDCFC",
"_. c #BBDCFF",
"`. c #BCDDFC",
"'. c #BCDDFD",
"]. c #BCDCFE",
"[. c #BDDEFE",
"{. c #BEDFFD",
"}. c #BADAFC",
"|. c #BFE0FE",
" X c #C1DDFE",
".X c #C3E2FF",
"XX c #C9E4FF",
"oX c #C8E9FF",
/* pixels */
"x T ;.c.;.v T &.;.c.C.`.&.v H ;.;.;.&.v v &._ x h f M N N N M x N N k.k.M N I.].<.M Z k._ _ M.M.].M.M.8.8.2..._ _ <.8.8.&.I.H f ",
"x T ;.M.;.x H ;.;.c.C.C.&.v H &.T >.&.v b &.H x h f z S N N x M N N k.k.M _ I.].<.M _ k._ H M.C.M.I.M.M.2.2...D _ <.2.&.&.I.N h ",
"Z H T &.c.v v T ;.>.C.&.x x T M.T x b H T I.&.N v N N x N S N N S <.2.S N S <.z.M h N k.z.H &.M.`.`.`.`...S N N N M _ ....I.c.S ",
"v j j S T v x x S &.&.v h h S ;.v f x &.M.`...S ..S S S S <.2.k.n.n.<.N <.<.N l f k M k.8.&.8.>.M.&._ N N x x h k x N H x 8.`.c.",
"x j h x H x h h x T H x j h x ;.x f v M.C.`...x ..N 2.c.2.S 2.n.n.I.N x <.8.l r k k <.k._ _ &.&.M.M.8._ x x j M N N <.S x _ M.I.",
"T x H &.>.b x T ;.;.>.`.C.T v T &.&.>.T S b &._ j z f x S N N z M N N k.k.N N I.`.<.x N x._ H >.M.`.I.M.&.<.&._ <._ 2.8.8.c.M.S ",
";.x T &.M.T x T ;.c.M.`.C.;.v H >.&.>.T v H &._ z j f z N S M M M N N k.k.N S I.I.<.x Z 8._ _ >.`.I.I.M.&.8.&._ _ <.2.8.8.8.I.H ",
"T H b T ;.&.v H T ;.M.C.;.x x T C.T x H H T c...S S N M N N S S N 8.5.<.S N N k.8.M k N k.z.H &.M.`.`.`.I.8._ N N N M S ....I.c.",
"o.v x x v ;.v x x H ....v h h v >.b f x T C.`.&.H .._ N S S <.2.k.I.x.C N _ _ N z f k M 8.8.8.8.M.M.&._ S N x z h k M S H v 8.`.",
"C.v h f x C.x h h x T S x j h x T v f x C.J.C._ x &.N &.n.2.S 8.I.I.I.S M <.z.l r k k <.k.<.&.&.&.M.M.8.H M z j x N N <.N x _ M.",
"C.T v x T C.S v x T ;.T T &.x T &.H v &.;.C.M.S x H x 8.I.<.N <.k.2.k.N N k.k.M r k _ I.k._ H H H &.`.M.&._ ..2.2.p.p.k._ N 2.I.",
"c.;.;.;.;.C.;.;.;.;.;.;.M.M.;.;.&.H ;.M.&.T c._ v S N _ _ _ S C S N N N 8.8.k.<.h M <.`.x.8._ H v T 8.S x H 8.n.I.I.k.2.&...n.I.",
";...c.C.c.;.;.c.`.M.c.M.c...&.&.T v &.M.H H &...H ..k.S j M N Z N k k N I.k.k.x.N M z.I.I.I.S j x T `.I._ x N &.n.I.8._ N ..8.I.",
"T ;.S.C.;.T ;.c.c.M.`.C.;.&.T T H H M.M.M.;._ H c.`.c.8._ N 8.I.k.z z N I.I.p.x.z.N Z I.I.<.x h f f &.I.&.N .._ N Z M N N N N I.",
"x `.`.;.H N |.C.;...M.M.M.M.;.c.T H ;.C.J.M.&.H 8.I.I.`.k.<.k.I.2.m N k.`.I.k.I.&.k M <.N N x j f r h S &.8.I.8.N D N N 2.k k M ",
"M `.S.T x M `.C.v x H T &.M.;.M.&.&.c.M.;.M.&.&.c.n.n.`.I.8.k.k.S <.8.`.I.k.k.I._ k N 8.N <._ H H j j N 8.I.I.8.<.8.<.D 5.f r k ",
"m S.c.v j C C.;.x h x b  .;.v T ;.T c.;...;.c.c.&.&.&.I.I.z.z.N N N <.I.k.k.k.x.N k <.I._ 8.M.M.>.&.T ..S S 2.8.I.`.8.Z Z M k k ",
"n.;.C.T x k.;.c.b x x b  .S v S T ..c.;...;.M.2.N j _ I.I.k.k.<.x k N Z <.I.]._ f h N C N M _ ..T T 8._ h N _ 2.I.I._ N m N M k ",
"`.T >.;.S `.T C.&.v S .. .b v ..c.S S x S T c.c.x h _ x.I.x.n.x.N M M M N I.I.N d k d M N x v b x H &.H j f x N k.I.<.M N S N z ",
"2.N ..2.S ..x c...S S ..T S ..`.`.S j k h S c.I.T x Z A 8.x.I.k.8.k.Z x N <.Z l d k r x x.k.N x T H &.&.x d d j _ I.M._ S m h k ",
"..M N M z ..M m z k ..`.c...2.D C M t e z n.2.N =. X=. X XZ  X Xx.x.x.=.@.A Z l u k l C x.}.Z v T T |.J.x h x j v C.C.c.n.z f N ",
"S.m M z N c.m M k N ..c.`.`.N k n B d n D p.<.M g  X=.Z Z Z c p z.x.M.x.].x.x.@.M k l Z x.z._ =.&.T C..XT b ;.c.;.C.....c.N S S.",
";.c.C S ..;.n.S _ ..S ..`.c.N M M M t M p.<.k.8.s g  Xy  X Xp y a.Z *.x.x.x.z.a.Z m m x.x.m x ..;.8.`.I.S S ;.c.S.c.S S ..N x ..",
";.`.n.`.c.c.`.n.n.c.x ..`.S ..k.U.D M k p.k..._ c c w p  Xy Z  XZ h Z _ *.A N N l m Z p.p.N k N _ 8.I.N x N S S S S N S r...z j ",
";...2.r.o.:.:.:.c...v T M.;.&.c.U.p.p.D S N 2.|.h 1 % & w  X X X6.l Z A =.Z x g y m A 6.A A Z N k k x M N k.<.N m z N S 2.`.2.N ",
" ...S v v T T S v T c...&.c.c.8.D p.U.|.S S n.oXs $   X 7 XX=.Z =.l Z a.a.A Z y y l h m Z *.x.<.M k h D I.`.k.5.D z m S S c.S S ",
"v >.;.v v v C.T x T |...x ..`.M.S S S n.S.|.....b > % 1 y c  X X=.l Z =.}.a.Z h y u u m Z A x.z.C N N N x.I.k.k.<.m S 2.N z d z ",
" . .|.v v  .:.|.v v S.S z S n.n.S z f N D D c.|.b b b ,. Xc  X=.6.l Z =.}. Xz.Z N M Z x.z.Z A A m S M m k.I.k.k.5.N D p.N M d k ",
"C.:. .T ..S.:.o.b :.c.2.N S 2.k.S M S S D x j S j b =.=. Xb c m N Z @.=.}.}.x.Z Z A }.].x.5.N k k N N N k.I.k.I.n.N m N N N S D ",
"|.:.v T S.S.o.b ..c.2.D D N 2.2.2.c.|.D r.r.T S b =.T b =.b  Xc 6.=.*.*.x.}.A m m x.x.x.p.<.M k k S D D x.I.k.k.n.2.<.S N D n.I.",
"v T j v ....S j S 2.N M 2.5.5.p.n.n.`.S r.|.U.S.T ,.b c =.=. X=.x.=.A c A a.c l Z A A C Z A N k N D p.p.I.I.N k M M N <.N D k.k.",
"x v j j z x v h j k k n C k.C D p.D m N r.r.S :.b  Xb c b =. X Xx.x.@.*.*.x.*.Z x.p.N m p.k.N N S <.2.<.I.`.2.M k h M p.<.N p.p.",
"x ..N j d v T v f r t d n V M C 5.<.M N :.S b o.b ,.b c c x =.x. X=.].@.a.}.a.Z  XA i N x.z.l Z @.Z x *.].].I.M._ x x I.k.N n.I.",
"..C.c.x f c.n.2.z k k M M M k m k.I.2.x S c.;.C.o.=.,.=.b x x x a.a.8.*.a.a.A N Z =.c l Z Z g c Z x N *.8.Z _ x.x.<.Z x.8.Z I.`.",
"U.`.`.2.S `.`.`...S 2.k.D M k N k.n.D x :.C.>.o.,.v j H =.c j N @.x x x x Z c l u g Z c y g c g g c z.Z Z Z l c x.x.p.A l l C x.",
"c.S c.n.c.n.S `.n.r.n.`.S z N <.k.p.N T ;.:.T >.C.b x H *.H N ..@.Z b x H Z Z A c u Z  X Xc c c f h l x c Z m m z.z.p.A l k h Z ",
"c.x S U.n.2.x ..c.n.r.S M k M <.k.<._ 2.H x x &.C.M.H H ..c.c.n.c.|.M.&.H N *.a.A g  X X X X X Xl l x Z Z *.Z Z A z.z.x.z.Z x Z ",
"..x ..c.r.S x ..n.r.N j f z N <.C _ 8.8._ _ b H T J.T H ..n.`.c...C.`.&.M N Z a.A Z =.Z c Z c Z c c c Z A a.@.*.A A Z Z z.Z l M ",
"j r...c...j c.2.c.2.z f N k.2.2.N _ p.k.I.M.8.S H 8...H ..c.c.T x j S x h k Z x. X X Xc y c c c c c Z A *.*.a.A x c l l c A Z N ",
"f `.2.c.S z `.r.c...x M 2.n.<.N S C Z _ _ 8.`.M.H ..8.8.n.`.C.S h d v N l l A }.Z  Xp c c  XZ c Z Z Z *.=.x.}.A l m m l x a.@.A ",
"z n.;.r...x `...8.8.....N M N D 5.C N m z M k.I...S c.`.`.`.;.S j j v :.Z N x.x.Z m x a. X XZ Z c c A =.}. Xa.Z l Z A A Z x.x.a.",
"f c.c.c.2.f U.c.c.I.`.2.k h N n.`.n.k.N f d M <.S N c.n.n.c.;.T v v v ..8.p.x.x.A C l A Z  X XZ x c Z a.}.@.l l u y Z }.x.@.a.*.",
"d S S S S d ..S N ;.`.2.N k k D I.I.k.<.k k N _ N N ....c.`.c.;. . .v S I.I.].x.6.C l u g Z c  Xc x Z a.a.N u l f u l a.@.@.a.A ",
"N z f h S N f f j D `.c.N f d k D <.N N M m p.I.k.2.N S ..2.c.;.:.T v T k.k.x.I.x.A l u p A Z c c A a.}.x.=.Z c m c Z a.=.Z *.A ",
"p.f j z S 2.f j x S I.n.N j t k C N N m m 5.I.I.n.p.z x S S H T :.v K :._ D 8.x.z.A m i A  XZ y c @.}. Xx.a.a.A A 6.x.x.a.Z A *.",
"k.x S ..r.p.z S 8.8.I.n.<.N M N n.p.2.D 5.5.p.5.m N M S H b v b T b T |._ S C C A A A m m A Z c Z =.}.*.c x Z m N x.}.}.A x Z =.",
"n.f S |.`.2.f c.`.I.8.I.c.<.<.k.8.D N k.k.D C k f N <.c.M...x H T j b :.r.N k n p A A C Z Z u g Z x.x.Z l l l l l 6.}.A N k l A ",
"k.d N S 2.5.d N S 2.`.c._ S ..k._ h f M V N n k N k.&.2.k.c.k.8.|.T K _ 2.N t d l m x.x.Z p u g Z a.A A C Z m u m A A A k y l Z ",
"n N N z z n S N z N |.p.z z S :.v j v M M M M x N 8.x k M <.I.I.x.x.A @.Z l u l l m A a.m y l *.x.x.A Z C A V n V V C m k u k m ",
"t p.n.D n u n.n.S M D U.S d x S _ S 2.n.n.k._ M j k z f h M <.k.8.c A A m y u m Z Z Z C M y l x.].A m V V n n n V A V u y u n n ",
"A k.`.p.C 5.x.I.p.D N N z z D _ ..S H x.k.k.k.&.v x ..S x M D <.Z x.x.*.Z l k l Z A Z m A k u m C m u u i n V B m p.V e u u m n ",
"x.n.5.M m }.x.5.M M m k d S _ U.k.N x N p.p.k.I...H c.;...8.z.M M ].A *.A z.m k m p.A A p.C k y k k m p n C C C C p.C u u n C m ",
"A x.V u y p.p.m u y k n M M 5.k.x.k.C M S 2.n.c...T ;.c.c.c.2.z k Z l N x.].p.l m Z A A A Z n y r y n n B Z C C A Z A m n k V V ",
"C n n C C C u B C m i u n n A k.x.].Z k z 2.r.....c.C.c.c.n.D k y h l N Z I.x.A l k m V m u k k y y t i B C n C p.V V x.V n m m ",
"A t V A A A y V A A m m V A C Z p.x.5.z k D ..S &.c.;....._ N k r y *.a.x.x.}.A M y u m m C k y M Z i V C t i C A B C z.A k n n ",
"A A A V B A A A V n V A p.A p.5.n k C M N D 2.r.....x x z z h d y Z  X}.=.A Z u l u p p.A V l y m y * ; i V V V i u i m A m t i ",
" XA  Xp i  X XA m t l x. XA i l Z p y C A Z C S S ..N N z k d k j Z c H `.XX<.y n m u A x.Z m y C q @ # t A i i B Z A m C i i m ",
"p  Xp p i A A p V u i m A A  X XA y g x.Z u d M <.n.2.5.D N V V z.x.&. XXXh : - r m e i  X}.u y Z C 4 4 V V e u A ]. XA V n n V ",
"p A A A p p A A A m m N  Xy 7 9 l Z u i n t k N n.I.`.n.p.D C 5.<.c *. XI.8 @ # 0 u n m A V u l Z x.A n i B i u A }.A m n n n V ",
"p A A Z i Z A A m u y m i : X O 2 x Z l t n C k.k.p.p.5.C D 5.C Z Z x c x f , , e m u i C A m m p.m u t u n i i V A C B n u i i ",
"A  XA A m A A A =.m y y y ; . @ 6 =.=.m n n n <.p.p.M M M A k.C M g ,.,.x C.l C m u u p p z.A z.}.C i u i i i i m m m V C B B i ",
"p  X X XA m  X X XA m u y 0 6 0 z.].C A M t n V C A V t i x.p.V y y c A C z.C m B p p V p p A x.x.C p i i p p i i i p V A V n p ",
"y  Xp p Z i A A p p u l l y Z A A V V V i n A A C C n t u A p.V u i m i M C B u V A p p p V p A C p p p p p i i i i p V V p p i ",
"i p p p i i V m y p l y y u u i n n M i t n A A m B n u i V A C u k n u u C B n C A p p p p p p p p p p p p i i i i p p p i u i "
};
