/* XPM */
static char *c7e8989433aa4bcba1064816bf250f26GZv6dE5i31tpfWcF[] = {
/* columns rows colors chars-per-pixel */
"70 64 248 2 ",
"   c #B4D4F9",
".  c #0C0D0D",
"X  c #04080B",
"o  c #03131C",
"O  c #0A1215",
"+  c #131415",
"@  c #181C1D",
"#  c #020B14",
"$  c #0A1A23",
"%  c #051B2B",
"&  c #051825",
"*  c #121B27",
"=  c #0A222C",
"-  c #08222B",
";  c #172528",
":  c #082738",
">  c #182B38",
",  c #15313B",
"<  c #262729",
"1  c #283337",
"2  c #343434",
"3  c #231F24",
"4  c #082C48",
"5  c #0B3749",
"6  c #163448",
"7  c #0C3C54",
"8  c #093C5C",
"9  c #07335A",
"0  c #0A3053",
"q  c #243D46",
"w  c #373C43",
"e  c #253F54",
"r  c #063663",
"t  c #063D6D",
"y  c #073B65",
"u  c #063D76",
"i  c #0D435A",
"p  c #174659",
"a  c #19424A",
"s  c #314B54",
"d  c #0A436C",
"f  c #0C4A6C",
"g  c #0D4766",
"h  c #134B67",
"j  c #175568",
"k  c #094472",
"l  c #0C4B74",
"z  c #07437B",
"x  c #09457B",
"c  c #0A4B7C",
"v  c #074374",
"b  c #0E5174",
"n  c #0E537B",
"m  c #0F587B",
"M  c #135C7A",
"N  c #165578",
"B  c #1E4F78",
"V  c #265769",
"C  c #395A65",
"Z  c #2C506B",
"A  c #19627A",
"S  c #3B6379",
"D  c #2F6972",
"F  c #4B575E",
"G  c #525455",
"H  c #475562",
"J  c #496572",
"K  c #586C6F",
"L  c #6C7278",
"P  c #615A6E",
"I  c #0A4B83",
"U  c #094D8D",
"Y  c #074986",
"T  c #0C5283",
"R  c #0F5984",
"E  c #0C548C",
"W  c #0D5A8B",
"Q  c #115B82",
"!  c #155987",
"~  c #074C98",
"^  c #0E5C94",
"/  c #0C5C9C",
"(  c #0B5597",
")  c #135C94",
"_  c #2D5283",
"`  c #12638C",
"'  c #176789",
"]  c #0F6399",
"[  c #136493",
"{  c #146C93",
"}  c #12659B",
"|  c #136D9A",
" . c #1C6899",
".. c #1A7493",
"X. c #16739C",
"o. c #18779A",
"O. c #15698C",
"+. c #267386",
"@. c #326899",
"#. c #277B96",
"$. c #367998",
"%. c #296A93",
"&. c #0A5DAC",
"*. c #0A57A4",
"=. c #115DA0",
"-. c #0E64A4",
";. c #0E65AA",
":. c #156BA7",
">. c #1573A3",
",. c #167BA6",
"<. c #197CA4",
"1. c #1573AA",
"2. c #157BAA",
"3. c #197DAA",
"4. c #0D64B5",
"5. c #136CB6",
"6. c #1373B5",
"7. c #167BBB",
"8. c #1478B7",
"9. c #247AA5",
"0. c #3479A5",
"q. c #2871B2",
"w. c #477988",
"e. c #477995",
"r. c #4B7185",
"t. c #4E75A3",
"y. c #1379C5",
"u. c #116DC3",
"i. c #267EC2",
"p. c #288499",
"a. c #34859B",
"s. c #1C83A5",
"d. c #1B83AC",
"f. c #1C88AC",
"g. c #1A83B2",
"h. c #1C8BB3",
"j. c #1A8DBB",
"k. c #1882BA",
"l. c #1D92B5",
"z. c #2589A7",
"x. c #3787A5",
"c. c #2895AA",
"v. c #2699B9",
"b. c #3990B8",
"n. c #32A7BD",
"m. c #1F8295",
"M. c #4A8494",
"N. c #558A97",
"B. c #548E98",
"V. c #638A99",
"C. c #788B94",
"Z. c #4A88A9",
"A. c #5796A9",
"S. c #4885B5",
"D. c #5597B7",
"F. c #4D92AE",
"G. c #6897A8",
"H. c #7799A5",
"J. c #6494B5",
"K. c #6B8EAC",
"L. c #55A5B7",
"P. c #7BA9B7",
"I. c #1684C6",
"U. c #1A84C4",
"Y. c #1B8BC4",
"T. c #1788CA",
"R. c #1E9DCB",
"E. c #1D96C7",
"W. c #1888D3",
"Q. c #1D9CD2",
"!. c #1B96D9",
"~. c #2787C5",
"^. c #229CC4",
"/. c #209DCB",
"(. c #2598C7",
"). c #279BD6",
"_. c #3490CC",
"`. c #1FA7D8",
"'. c #24A4CB",
"]. c #29A7C9",
"[. c #24A8D5",
"{. c #29B4D7",
"}. c #30B5D6",
"|. c #39AECD",
" X c #1EA8E4",
".X c #27A4E1",
"XX c #28B8E5",
"oX c #30BFE7",
"OX c #4B96CD",
"+X c #47ABC9",
"@X c #4AA6D7",
"#X c #45B6DA",
"$X c #54B9D6",
"%X c #76B9CA",
"&X c #63ACD5",
"*X c #6AB5D4",
"=X c #78BBD6",
"-X c #71B1CA",
";X c #4DB0E4",
":X c #67B2E4",
">X c #2DC5E9",
",X c #2BCAF3",
"<X c #2ED1F6",
"1X c #36D5F3",
"2X c #32C2E2",
"3X c #35C1DB",
"4X c #77CADC",
"5X c #6FC9D8",
"6X c #48C7E3",
"7X c #6DC2EA",
"8X c #72D3ED",
"9X c #6DE7F8",
"0X c #58D5E7",
"qX c #869296",
"wX c #8B9AA2",
"eX c #94ACB3",
"rX c #A9AEB5",
"tX c #8DBDC6",
"yX c #AABDC8",
"uX c #B0BFC1",
"iX c #96C5D2",
"pX c #B7CDD4",
"aX c #B2CBD3",
"sX c #9CD5E4",
"dX c #8FD1E8",
"fX c #B7D9E1",
"gX c #90EAFA",
"hX c #B9E5F0",
"jX c #C8CED7",
"kX c #D4D9DB",
"lX c #C4CCCE",
"zX c #C5DAE4",
"xX c #DADFE0",
"cX c #D6E5EA",
"vX c #D9EDF2",
"bX c #DDF9FF",
"nX c #D8F2F9",
"mX c #C7E6F0",
"MX c #E6EBED",
"NX c #E8EDF6",
"BX c #E3F6FE",
"VX c #EDF5FE",
"CX c #E5F9FF",
"ZX c #ECFAFF",
"AX c #E6F2F5",
"SX c #F2FBFF",
"DX c #F9FEFF",
"FX c #F1F6FC",
/* pixels */
"                                                                                                                                            ",
"                                                                                                                                            ",
"                                                                                                                                            ",
"                                                                                                                                            ",
"                                                                                                                                            ",
"                                                                                                                                            ",
"                                                                                                                                            ",
"                                                                                                                                            ",
"                                                          <                                                                                 ",
"                                                        1 xX>X#                                                                             ",
"                                                      3 FXkX].s.=                                                                           ",
"                                                    < MXDXrXc.s.v.j                             .                                           ",
"                                                    MXDXDXeXp.l.v.'.f.@                       P wXa                                         ",
"                                                  kXDXDXDXH.s.l.l.>X<Xl.@                 . lXDXF.}.                                        ",
"                                                lXDXDXDXDXC.s.].{.<X<X{.s               G DXDXMX$X2.5                                       ",
"                                              rXDXDXDXDXZXM.{.].<X<X,XP.;           + lXDXDXDXN.g.d.j                                       ",
"                                            rXDXDXDXSXDXnXp.m.v.,X,X#. X$         L DXDXDXDXSX+Xg.A D                                       ",
"                                          C.DXDXDXDXSXpX5X1X{.f.s.j..X:.$       3 a.DXDXDXDXH.[.s.9X@                                       ",
"                                        F DXDXDXSXSXeX#X'.{.{.d.X.{ !.-.&       B.{.N.DXDXDXv.c.9X9X                                        ",
"                                        J ].H.vXCXM.s.d.l.v.E.R.X.g.[.-.& i @ 1 k.j.[.rXDXpXc.1X<XP.                                        ",
"                                        2 s.X.{.#.z...o.h.f.| Y.E.I..X, MX9.7 : / >.Q.R.xXF 2Xf.R.s                                         ",
"                                          D.| [.c.o.| s.f.,.` | T.-.F DXZXR.` p d -.I.`.b.>Xs.d.3X+                                         ",
"                                    < MXK -Xs.,Xc.o.X.h.{ | } n 1.H.DXDXvXXXj 2X5 c 2.`.x.l.^.,.4X                                          ",
"                                    AXSXjX%X2.,Xn.s.,.d.` ` R l k jXDXDXaX>X6XdXD.: ` |.dXf R.R.w.                                          ",
"                                  rXDXDXV.G.`.'.#Xn.h.X.R R l l 4 M.DXDXN.m.{.'.f.,.: D dXl 2.'.;                                           ",
"                                s DXDXiXT J `.` 5X].3.X.n l d c C 2.FXDXD ].^.{.[.E.`., M z ] {.+                                           ",
"                                ; |.+.6. .s  .n dX^.X.X.] W c W tXXXrXDXM ..'.'.2.[.[.>X= T >.].                                            ",
"                                  7XM ) t.5 0.R dX(.{ Q b T / 4 8XXXZ.vX..o.[.s.W 3.XX(.w.c T.s.                                            ",
"                        + . + @   iXv.[ S.r OXn gXf.Q | 0.l o - #...v.aXO.,.`.,.X.D.*X.XH.6.k.i         @ + +                               ",
"                        L 6X^.l.l.G.oXE S.I =X[ gXf.z.Z.& f R J c M ^.V.o.l...F.).1.` T.H y.8 * + 2 ; eXS Y.E.s                             ",
"                        cX5Xl.l.p.H d.h 0.*.dX.XgX|.; +X>.>.n L.}.}.].i { 8.2.I.l v c ).5 0 pXCXBXvXyXC.$ 7.D.&X                            ",
"                      + ZX%Xc.'.'.q O.' q.&.J./.gX$ AX-X.XY.T }.4.( / X.] W ^ ] d d T 7X% cXBXbXBXBXVXyXT * t ~.+                           ",
"                      L ZXB.3Xl.7.g x.(.5.4.S *Xs kXDXV. X!.j +.y.( ( [ ^ E :.:.d x 7.5XeXCXCXBXBXBXzXc c 7 y 5.<                           ",
"                      kXSXB.l.#X4 % : 5 j 4 = p aXDXDXF.+X;X).a u.*.q.) c 9.T W -.;.W.D I.fXfXfXfXiX[ ^ 8.(.w pXaX@                         ",
"                      A z.+.@X8.q +X' p.0.l O rXDXDXfX!.W.U &.V y.u._.:.9.l d W } s - : A.X.3./.R.b.^ y.U.).1 ZXzXe                         ",
"                      + $X^.A.^ lXwX..c.' i wXDXSXvXg.>.*.v z A.W.4.@X( c k r J AXCXa.= | ,.(.k.f.x.( ! !.7XeXZXyXdX                        ",
"                        h ,.#.= DXFX$Xv.M L DXSXmXM R ] Y t t *X~.v ~.) x $ cXCXCXCXM.7Xo k.2.R g.9.U k y C ZXZXV.b.O                       ",
"                        . s.d.qXDXDXN.}.o.H.dX#XiXm W / Y t y :Xo.x !  .T V S CXCXCXh 3.^.5 0.` ].y.U y H AXZXZXV T A                       ",
"                          i i AXDXDXcX` .X: ' f sX` W / x t r @Xi T 8 OXT D.n j CXZXp n E.j @...b.5.s cXSXSXZXZXl U 1.+                     ",
"                          . ' ' vXDXBX-.c Z x.l 5X` W / t t z : A.J o ! * @X[.[.x.VXp c W (.# g q zXBXVXZXZXZXvXR -.5.o                     ",
"                            7 : A.nXvX .c F.n n n.$.-./ x : w.G.f b x.p.= 5 Y.'.XX#.j g ^ ~.5 aXZXSXSXVXZXSXSXtXI.6./ y                     ",
"                            . g 8X+.hX@.z E = ! z.A.T.l V D.f f b b l s./.hXS i ] /.-.-.&.&X..X.cXZXZXZXSXSXSXM.y.E c Y .                   ",
"                              0 V {.j :.U 4.J j.g.P.M #.M ' m.{ { { h.R./.x.v.y } M *.( &.J F.$X<.VXSXZXVXSXFX%.8.c x z o                   ",
"                              X $ XXs.S.4.~ b.[ E.eX1 n.<.{ ,.h.m.{ R.{ 6.} v.n :.E v Y 6.: O.3.p.V FXZXSXFXSX3.-.I x r O                   ",
"                            @ sX& (.l.T q.x =.: T.A.fXL.` b n X.d.j.%.T c ;.j } i Y u U ~.' n n n ` r.FXSXFXFXy.U Y r i.                    ",
"                          a bXbXM.5 ' ) _ x Y = 8.; ZXA.b m Q ,.+.@X! I U W.= :.) z Y ~ 6 > [ b b n ).D.7.6.5./ U u ~ tX                    ",
"                        D bXbXbXnX# n m l ! t ! d pXhXM.m b { M.).x V x *.y.W T t.x 9 rXFXW.4 [ 2.~.T.M.W.;.u.U ( Y 4.w                     ",
"                        5Xa.nXbXCXG.d N k 0 t :.; A.h.'.o.{ G.W.t : 6 pXrXF > t S.x NXFXFX) 1.N >.U.U.! ) I ) u.u *.;X                      ",
"                        4X].s.%XbXnX% l f &.z 7 8 >.R W !.$.6.% M ,.M.P.mXVXJ.4 S.Z SXSXFX} y.x 6  .U.:.%.x 4.OX~ *.C.                      ",
"                        %XA X.d.+.4X% d c Y C nXNXL : } u o U T.f d ` `.!.8 u.~ u jXSXFXFX1.B ( r.W [ y.! x 5._ 9 i.3                       ",
"                        B...R o.,.#.;.0 & sXZXnXiX$.[ E *.~ 4.n g f ,.=X3.;.q.u * FXSXFXzXB ~ ~ 0.n n 7.y I u.r r -X                        ",
"                        X o - 5 M F.R : 3.2.f.|.` k W.I t z t 8 d d.G.7.5.4.K.r wXFXFXFXI 4._ ) ( 6 n Q h I t.r r P                         ",
"                                      ` m ` [.G.v ;.7./ 9 r Y t _.+.8.T t y t.r P FXFX_ u ~ 4.Y @.H :.x [ I _ r _ +                         ",
"                                        X g [.G.c u.l u r r ~ & y E c t r r 0 u + rXwXI u u &.~ I t.+ V.(.@.*.U.=                           ",
"                                            X 6 D.@.8 % # X           + O . +       % z u u *.*.q.#..   3 # O                               ",
"                                                                                        # % : $                                             ",
"                                                                                                                                            ",
"                                                                                                                                            ",
"                                                                                                                                            ",
"                                                                                                                                            ",
"                                                                                                                                            ",
"                                                                                                                                            ",
"                                                                                                                                            ",
"                                                                                                                                            "
};
